<svg width="2000px" height="766px"
 viewBox="0.00 0.00 1402.29 537.04" xmlns="http://www.w3.org/2000/svg" xmlns:xlink="http://www.w3.org/1999/xlink">
<g id="graph0" class="graph" transform="scale(1.0 1.0) rotate(0) translate(4 533.04)">
<title>ContextMapGraph</title>
<polygon fill="white" stroke="transparent" points="-4,4 -4,-533.04 1398.29,-533.04 1398.29,4 -4,4"/>
<!-- GestionAdministracionFinanzasContext -->
<g id="node1" class="node">
<title>GestionAdministracionFinanzasContext</title>
<polygon fill="none" stroke="black" stroke-width="2" points="593.59,-41.76 595.27,-38.91 597.65,-36.1 600.7,-33.33 604.43,-30.61 608.83,-27.96 613.87,-25.39 619.55,-22.9 625.85,-20.5 632.75,-18.21 640.24,-16.03 648.3,-13.98 656.89,-12.04 666,-10.25 675.6,-8.59 685.67,-7.07 696.18,-5.7 707.1,-4.48 718.4,-3.41 730.05,-2.49 742.01,-1.73 754.26,-1.12 766.77,-0.66 779.49,-0.35 792.39,-0.19 805.44,-0.18 818.61,-0.31 831.85,-0.57 845.14,-0.97 858.42,-1.49 871.68,-2.14 884.87,-2.9 897.96,-3.78 910.91,-4.76 923.69,-5.83 936.26,-7 948.59,-8.26 960.64,-9.59 972.39,-10.99 983.79,-12.46 994.83,-13.99 1005.46,-15.58 1015.66,-17.21 1025.41,-18.89 1034.67,-20.61 1043.42,-22.36 1051.63,-24.14 1059.29,-25.94 1066.37,-27.77 1072.86,-29.62 1078.72,-31.48 1083.96,-33.35 1088.55,-35.23 1092.48,-37.12 1095.74,-39.02 1098.32,-40.92 1100.22,-42.82 1101.42,-44.73 1101.92,-46.63 1101.73,-48.53 1100.84,-50.43 1099.25,-52.33 1096.97,-54.22 1094,-56.1 1090.36,-57.98 1086.04,-59.84 1081.07,-61.7 1075.46,-63.54 1069.22,-65.36 1062.36,-67.17 1054.91,-68.95 1046.89,-70.71 1038.32,-72.44 1029.22,-74.14 1019.62,-75.8 1009.54,-77.42 999.01,-78.99 988.06,-80.51 976.72,-81.97 965.02,-83.37 953,-84.71 940.68,-85.97 928.1,-87.15 915.3,-88.24 902.31,-89.24 889.17,-90.14 875.91,-90.93 862.57,-91.62 849.19,-92.19 835.8,-92.63 822.45,-92.95 809.16,-93.13 795.98,-93.18 782.93,-93.09 770.07,-92.85 757.42,-92.47 745.02,-91.94 732.9,-91.26 721.1,-90.42 709.64,-89.43 698.57,-88.3 687.9,-87.01 677.68,-85.58 667.93,-84 658.67,-82.29 649.93,-80.44 641.73,-78.45 634.1,-76.35 627.06,-74.13 620.63,-71.8 614.82,-69.37 609.65,-66.84 605.13,-64.24 601.28,-61.57 598.11,-58.83 595.62,-56.04 593.82,-53.22 592.71,-50.36 592.31,-47.49 592.6,-44.62 593.59,-41.76"/>
<text text-anchor="middle" x="847.14" y="-43.02" font-family="sans-serif" font-size="16.00">GestionAdministracionFinanzasContext</text>
</g>
<!-- GestionAtencionClienteContext -->
<g id="node2" class="node">
<title>GestionAtencionClienteContext</title>
<polygon fill="none" stroke="black" stroke-width="2" points="125.88,-366.71 115.99,-364.72 106.58,-362.66 97.67,-360.53 89.3,-358.35 81.52,-356.11 74.35,-353.83 67.83,-351.52 61.98,-349.19 56.83,-346.84 52.4,-344.47 48.7,-342.11 45.76,-339.75 43.58,-337.4 42.17,-335.07 41.53,-332.77 41.67,-330.49 42.58,-328.26 44.26,-326.06 46.69,-323.91 49.85,-321.82 53.74,-319.78 58.34,-317.8 63.61,-315.88 69.53,-314.03 76.07,-312.25 83.21,-310.55 90.9,-308.91 99.11,-307.36 107.81,-305.88 116.95,-304.48 126.5,-303.16 136.42,-301.93 146.66,-300.77 157.18,-299.71 167.94,-298.72 178.9,-297.82 190.02,-297.01 201.26,-296.29 212.57,-295.65 223.93,-295.1 235.28,-294.64 246.61,-294.26 257.87,-293.98 269.02,-293.78 280.05,-293.68 290.92,-293.66 301.6,-293.74 312.07,-293.91 322.31,-294.17 332.3,-294.52 342.01,-294.97 351.44,-295.51 360.56,-296.15 369.36,-296.88 377.84,-297.7 385.97,-298.62 393.77,-299.64 401.21,-300.75 408.29,-301.95 415,-303.25 421.35,-304.63 427.34,-306.11 432.95,-307.68 438.18,-309.33 443.04,-311.07 447.53,-312.89 451.63,-314.79 455.36,-316.77 458.71,-318.81 461.67,-320.93 464.25,-323.1 466.44,-325.33 468.25,-327.62 469.66,-329.95 470.67,-332.32 471.28,-334.72 471.49,-337.14 471.28,-339.59 470.66,-342.04 469.61,-344.5 468.14,-346.95 466.23,-349.38 463.88,-351.8 461.09,-354.18 457.84,-356.52 454.14,-358.81 449.98,-361.04 445.36,-363.21 440.27,-365.3 434.72,-367.31 428.7,-369.22 422.22,-371.04 415.28,-372.76 407.89,-374.36 400.05,-375.83 391.77,-377.19 383.07,-378.41 373.95,-379.5 364.44,-380.44 354.56,-381.24 344.32,-381.89 333.74,-382.39 322.86,-382.74 311.71,-382.94 300.3,-382.98 288.68,-382.87 276.88,-382.6 264.94,-382.18 252.9,-381.61 240.79,-380.9 228.66,-380.04 216.55,-379.04 204.51,-377.91 192.58,-376.65 180.8,-375.27 169.23,-373.76 157.91,-372.15 146.88,-370.43 136.18,-368.61 125.88,-366.71"/>
<text text-anchor="middle" x="273.14" y="-331.63" font-family="sans-serif" font-size="16.00">GestionAtencionClienteContext</text>
</g>
<!-- GestionReservasContext -->
<g id="node3" class="node">
<title>GestionReservasContext</title>
<polygon fill="none" stroke="black" stroke-width="2" points="873.25,-193.7 872.51,-196.56 871.3,-199.38 869.62,-202.17 867.49,-204.91 864.9,-207.58 861.86,-210.19 858.38,-212.71 854.47,-215.14 850.15,-217.47 845.41,-219.69 840.28,-221.8 834.77,-223.78 828.89,-225.63 822.67,-227.35 816.11,-228.92 809.23,-230.35 802.06,-231.64 794.61,-232.78 786.91,-233.76 778.97,-234.6 770.82,-235.28 762.48,-235.81 753.97,-236.2 745.32,-236.43 736.55,-236.52 727.68,-236.48 718.74,-236.29 709.76,-235.97 700.76,-235.53 691.76,-234.96 682.79,-234.28 673.87,-233.48 665.03,-232.58 656.29,-231.58 647.69,-230.49 639.23,-229.31 630.94,-228.05 622.86,-226.72 614.99,-225.31 607.36,-223.85 600,-222.33 592.92,-220.76 586.14,-219.14 579.68,-217.48 573.56,-215.78 567.8,-214.05 562.4,-212.29 557.39,-210.51 552.78,-208.71 548.58,-206.88 544.81,-205.04 541.46,-203.19 538.56,-201.32 536.11,-199.45 534.12,-197.56 532.58,-195.67 531.52,-193.78 530.92,-191.88 530.79,-189.97 531.13,-188.07 531.93,-186.16 533.21,-184.26 534.94,-182.36 537.14,-180.46 539.78,-178.57 542.87,-176.69 546.39,-174.82 550.33,-172.96 554.69,-171.11 559.46,-169.29 564.61,-167.48 570.13,-165.7 576.02,-163.95 582.24,-162.23 588.8,-160.56 595.66,-158.92 602.81,-157.34 610.23,-155.81 617.9,-154.33 625.8,-152.93 633.91,-151.6 642.2,-150.34 650.65,-149.18 659.25,-148.1 667.96,-147.12 676.76,-146.25 685.63,-145.48 694.55,-144.84 703.49,-144.31 712.42,-143.91 721.33,-143.65 730.18,-143.52 738.96,-143.54 747.64,-143.69 756.19,-144 764.6,-144.46 772.84,-145.07 780.89,-145.83 788.72,-146.75 796.32,-147.82 803.66,-149.04 810.73,-150.41 817.5,-151.93 823.96,-153.59 830.09,-155.39 835.87,-157.32 841.28,-159.38 846.32,-161.55 850.96,-163.84 855.2,-166.24 859.02,-168.73 862.41,-171.3 865.37,-173.95 867.88,-176.67 869.93,-179.44 871.53,-182.25 872.66,-185.1 873.33,-187.96 873.52,-190.84 873.25,-193.7"/>
<text text-anchor="middle" x="702.14" y="-186.36" font-family="sans-serif" font-size="16.00">GestionReservasContext</text>
</g>
<!-- GestionAtencionClienteContext&#45;&gt;GestionReservasContext -->
<g id="edge1" class="edge">
<title>GestionAtencionClienteContext&#45;&gt;GestionReservasContext</title>
<path fill="none" stroke="black" stroke-width="2" d="M381.95,-298.1C450.71,-275.13 538.79,-245.72 605.15,-223.55"/>
<text text-anchor="middle" x="576.64" y="-259.08" font-family="sans-serif" font-size="12.00"> &#160;&#160;&#160;&#160;&#160;&#160;&#160;&#160;&#160;&#160;&#160;&#160;&#160;&#160;&#160;&#160;&#160;&#160;&#160;&#160;&#160;&#160;&#160;&#160;&#160;&#160;&#160;&#160;&#160;&#160;&#160;&#160;&#160;&#160;&#160;&#160;&#160;&#160;&#160;</text>
<polygon fill="white" stroke="transparent" points="586.15,-213.55 586.15,-232.55 602.15,-232.55 602.15,-213.55 586.15,-213.55"/>
<polyline fill="none" stroke="black" points="602.15,-213.55 602.15,-232.55 "/>
<text text-anchor="start" x="589.15" y="-219.95" font-family="sans-serif" font-size="12.00">D</text>
<polygon fill="white" stroke="transparent" points="602.15,-213.55 602.15,-232.55 624.15,-232.55 624.15,-213.55 602.15,-213.55"/>
<polygon fill="none" stroke="black" points="602.15,-213.55 602.15,-232.55 624.15,-232.55 624.15,-213.55 602.15,-213.55"/>
<text text-anchor="start" x="605.15" y="-219.95" font-family="sans-serif" font-size="12.00">CF</text>
<polygon fill="white" stroke="transparent" points="374.95,-289.1 374.95,-306.1 388.95,-306.1 388.95,-289.1 374.95,-289.1"/>
<text text-anchor="start" x="376.95" y="-294.5" font-family="sans-serif" font-size="12.00">U</text>
</g>
<!-- GestionReservasContext&#45;&gt;GestionAdministracionFinanzasContext -->
<g id="edge2" class="edge">
<title>GestionReservasContext&#45;&gt;GestionAdministracionFinanzasContext</title>
<path fill="none" stroke="black" stroke-width="2" d="M748.82,-143.66C765.37,-127.52 784,-109.37 800.55,-93.23"/>
<text text-anchor="middle" x="854.64" y="-115.04" font-family="sans-serif" font-size="12.00"> &#160;&#160;&#160;&#160;&#160;&#160;&#160;&#160;&#160;&#160;&#160;&#160;&#160;&#160;&#160;&#160;&#160;&#160;&#160;&#160;&#160;&#160;&#160;&#160;&#160;&#160;&#160;&#160;&#160;&#160;&#160;&#160;&#160;&#160;&#160;&#160;&#160;&#160;&#160;</text>
<polygon fill="white" stroke="transparent" points="777.55,-83.23 777.55,-102.23 793.55,-102.23 793.55,-83.23 777.55,-83.23"/>
<polyline fill="none" stroke="black" points="793.55,-83.23 793.55,-102.23 "/>
<text text-anchor="start" x="780.55" y="-89.63" font-family="sans-serif" font-size="12.00">D</text>
<polygon fill="white" stroke="transparent" points="793.55,-83.23 793.55,-102.23 823.55,-102.23 823.55,-83.23 793.55,-83.23"/>
<polygon fill="none" stroke="black" points="793.55,-83.23 793.55,-102.23 823.55,-102.23 823.55,-83.23 793.55,-83.23"/>
<text text-anchor="start" x="796.55" y="-89.63" font-family="sans-serif" font-size="12.00">ACL</text>
<polygon fill="white" stroke="transparent" points="741.82,-134.66 741.82,-151.66 755.82,-151.66 755.82,-134.66 741.82,-134.66"/>
<text text-anchor="start" x="743.82" y="-140.06" font-family="sans-serif" font-size="12.00">U</text>
</g>
<!-- GestionRecepcionContext -->
<g id="node4" class="node">
<title>GestionRecepcionContext</title>
<polygon fill="none" stroke="black" stroke-width="2" points="328.34,-89.7 316.98,-90.36 305.59,-90.89 294.21,-91.3 282.89,-91.58 271.67,-91.73 260.59,-91.75 249.69,-91.64 239.02,-91.4 228.62,-91.02 218.51,-90.52 208.74,-89.88 199.34,-89.11 190.33,-88.22 181.74,-87.2 173.59,-86.06 165.91,-84.8 158.72,-83.42 152.02,-81.93 145.83,-80.34 140.17,-78.64 135.02,-76.85 130.41,-74.96 126.33,-73 122.78,-70.95 119.75,-68.83 117.24,-66.65 115.25,-64.41 113.76,-62.12 112.76,-59.79 112.24,-57.42 112.18,-55.03 112.57,-52.61 113.39,-50.19 114.64,-47.76 116.28,-45.33 118.31,-42.92 120.7,-40.52 123.44,-38.15 126.52,-35.82 129.91,-33.52 133.61,-31.28 137.59,-29.08 141.84,-26.95 146.35,-24.89 151.11,-22.89 156.11,-20.97 161.32,-19.14 166.76,-17.39 172.4,-15.73 178.24,-14.17 184.27,-12.71 190.48,-11.35 196.88,-10.09 203.45,-8.94 210.19,-7.9 217.1,-6.97 224.17,-6.16 231.4,-5.45 238.78,-4.86 246.31,-4.39 253.98,-4.03 261.79,-3.78 269.74,-3.65 277.8,-3.63 285.98,-3.72 294.26,-3.92 302.64,-4.23 311.09,-4.65 319.62,-5.18 328.19,-5.81 336.8,-6.54 345.42,-7.37 354.03,-8.29 362.62,-9.31 371.16,-10.42 379.62,-11.62 387.98,-12.9 396.21,-14.27 404.28,-15.71 412.16,-17.23 419.82,-18.82 427.23,-20.48 434.36,-22.21 441.17,-24 447.64,-25.84 453.72,-27.73 459.4,-29.68 464.64,-31.67 469.4,-33.7 473.67,-35.77 477.41,-37.87 480.6,-40 483.21,-42.15 485.23,-44.32 486.63,-46.5 487.4,-48.69 487.52,-50.89 486.99,-53.08 485.8,-55.26 483.94,-57.43 481.41,-59.59 478.21,-61.72 474.35,-63.82 469.84,-65.88 464.69,-67.91 458.91,-69.89 452.53,-71.82 445.56,-73.69 438.04,-75.5 429.99,-77.23 421.44,-78.9 412.43,-80.48 402.99,-81.98 393.15,-83.39 382.97,-84.71 372.48,-85.92 361.73,-87.03 350.76,-88.04 339.61,-88.93 328.34,-89.7"/>
<text text-anchor="middle" x="290.14" y="-43.02" font-family="sans-serif" font-size="16.00">GestionRecepcionContext</text>
</g>
<!-- GestionReservasContext&#45;&gt;GestionRecepcionContext -->
<g id="edge3" class="edge">
<title>GestionReservasContext&#45;&gt;GestionRecepcionContext</title>
<path fill="none" stroke="black" stroke-width="2" d="M606.84,-156.47C543.14,-134.62 459.36,-105.87 393.96,-83.44"/>
<text text-anchor="middle" x="584.64" y="-115.04" font-family="sans-serif" font-size="12.00"> &#160;&#160;&#160;&#160;&#160;&#160;&#160;&#160;&#160;&#160;&#160;&#160;&#160;&#160;&#160;&#160;&#160;&#160;&#160;&#160;&#160;&#160;&#160;&#160;&#160;&#160;&#160;&#160;&#160;&#160;&#160;&#160;&#160;&#160;&#160;&#160;&#160;&#160;&#160;</text>
<polygon fill="white" stroke="transparent" points="374.96,-73.44 374.96,-92.44 390.96,-92.44 390.96,-73.44 374.96,-73.44"/>
<polyline fill="none" stroke="black" points="390.96,-73.44 390.96,-92.44 "/>
<text text-anchor="start" x="377.96" y="-79.84" font-family="sans-serif" font-size="12.00">D</text>
<polygon fill="white" stroke="transparent" points="390.96,-73.44 390.96,-92.44 412.96,-92.44 412.96,-73.44 390.96,-73.44"/>
<polygon fill="none" stroke="black" points="390.96,-73.44 390.96,-92.44 412.96,-92.44 412.96,-73.44 390.96,-73.44"/>
<text text-anchor="start" x="393.96" y="-79.84" font-family="sans-serif" font-size="12.00">CF</text>
<polygon fill="white" stroke="transparent" points="599.84,-147.47 599.84,-164.47 613.84,-164.47 613.84,-147.47 599.84,-147.47"/>
<text text-anchor="start" x="601.84" y="-152.87" font-family="sans-serif" font-size="12.00">U</text>
</g>
<!-- GestionAutorizacionAutenticacionContext -->
<g id="node5" class="node">
<title>GestionAutorizacionAutenticacionContext</title>
<polygon fill="none" stroke="black" stroke-width="2" points="311.22,-524.52 293.7,-524.18 276.38,-523.73 259.35,-523.16 242.66,-522.47 226.38,-521.67 210.59,-520.76 195.33,-519.74 180.68,-518.62 166.67,-517.39 153.37,-516.07 140.82,-514.65 129.07,-513.15 118.14,-511.55 108.08,-509.87 98.9,-508.12 90.64,-506.29 83.31,-504.4 76.91,-502.44 71.47,-500.43 66.99,-498.36 63.45,-496.25 60.85,-494.1 59.19,-491.91 58.45,-489.69 58.6,-487.45 59.63,-485.2 61.51,-482.93 64.2,-480.66 67.69,-478.39 71.93,-476.12 76.88,-473.87 82.52,-471.64 88.8,-469.44 95.68,-467.27 103.12,-465.13 111.08,-463.04 119.52,-460.99 128.4,-459 137.69,-457.07 147.34,-455.2 157.32,-453.41 167.59,-451.69 178.12,-450.04 188.88,-448.49 199.85,-447.02 210.98,-445.64 222.26,-444.35 233.66,-443.17 245.16,-442.09 256.75,-441.12 268.4,-440.25 280.1,-439.5 291.84,-438.86 303.6,-438.33 315.37,-437.92 327.15,-437.63 338.92,-437.46 350.68,-437.4 362.41,-437.47 374.12,-437.66 385.78,-437.96 397.41,-438.39 408.97,-438.93 420.48,-439.58 431.91,-440.36 443.26,-441.24 454.51,-442.24 465.65,-443.34 476.66,-444.55 487.53,-445.86 498.23,-447.26 508.74,-448.76 519.04,-450.36 529.11,-452.03 538.91,-453.79 548.41,-455.62 557.6,-457.53 566.42,-459.5 574.85,-461.53 582.86,-463.62 590.4,-465.75 597.44,-467.93 603.94,-470.14 609.87,-472.39 615.19,-474.66 619.85,-476.95 623.82,-479.25 627.08,-481.56 629.58,-483.86 631.29,-486.16 632.19,-488.44 632.25,-490.7 631.44,-492.94 629.74,-495.14 627.14,-497.3 623.63,-499.42 619.19,-501.49 613.82,-503.5 607.53,-505.45 600.31,-507.33 592.18,-509.13 583.16,-510.86 573.25,-512.51 562.49,-514.07 550.9,-515.53 538.52,-516.91 525.4,-518.18 511.56,-519.35 497.06,-520.41 481.96,-521.36 466.3,-522.21 450.16,-522.94 433.58,-523.55 416.63,-524.05 399.39,-524.43 381.92,-524.68 364.3,-524.82 346.59,-524.84 328.87,-524.74 311.22,-524.52"/>
<text text-anchor="middle" x="347.14" y="-477.31" font-family="sans-serif" font-size="16.00">GestionAutorizacionAutenticacionContext</text>
</g>
<!-- GestionAutorizacionAutenticacionContext&#45;&gt;GestionRecepcionContext -->
<g id="edge4" class="edge">
<title>GestionAutorizacionAutenticacionContext&#45;&gt;GestionRecepcionContext</title>
<path fill="none" stroke="black" stroke-width="2" d="M184.4,-449.12C117.83,-432.83 51.79,-410.71 32.14,-384.19 -33.34,-295.79 11.38,-223.34 86.14,-142.64 108.83,-118.14 139.12,-99.43 169.4,-85.38"/>
<text text-anchor="middle" x="83.64" y="-259.08" font-family="sans-serif" font-size="12.00"> &#160;&#160;&#160;&#160;&#160;&#160;&#160;&#160;&#160;&#160;&#160;&#160;&#160;&#160;&#160;&#160;&#160;&#160;&#160;&#160;&#160;&#160;&#160;&#160;&#160;&#160;&#160;&#160;&#160;&#160;&#160;&#160;&#160;&#160;&#160;&#160;&#160;&#160;&#160;</text>
<polygon fill="white" stroke="transparent" points="150.4,-75.38 150.4,-94.38 166.4,-94.38 166.4,-75.38 150.4,-75.38"/>
<polyline fill="none" stroke="black" points="166.4,-75.38 166.4,-94.38 "/>
<text text-anchor="start" x="153.4" y="-81.78" font-family="sans-serif" font-size="12.00">D</text>
<polygon fill="white" stroke="transparent" points="166.4,-75.38 166.4,-94.38 188.4,-94.38 188.4,-75.38 166.4,-75.38"/>
<polygon fill="none" stroke="black" points="166.4,-75.38 166.4,-94.38 188.4,-94.38 188.4,-75.38 166.4,-75.38"/>
<text text-anchor="start" x="169.4" y="-81.78" font-family="sans-serif" font-size="12.00">CF</text>
<polygon fill="white" stroke="transparent" points="177.4,-440.12 177.4,-457.12 191.4,-457.12 191.4,-440.12 177.4,-440.12"/>
<text text-anchor="start" x="179.4" y="-445.52" font-family="sans-serif" font-size="12.00">U</text>
</g>
<!-- GestionFacturacionContext -->
<g id="node6" class="node">
<title>GestionFacturacionContext</title>
<polygon fill="none" stroke="black" stroke-width="2" points="832.04,-298.71 842.24,-300.27 852.1,-301.92 861.56,-303.66 870.6,-305.48 879.17,-307.37 887.24,-309.32 894.78,-311.34 901.75,-313.4 908.13,-315.51 913.9,-317.66 919.02,-319.84 923.48,-322.05 927.27,-324.28 930.38,-326.52 932.79,-328.76 934.5,-331.01 935.51,-333.25 935.82,-335.48 935.44,-337.69 934.37,-339.88 932.63,-342.05 930.24,-344.18 927.2,-346.28 923.54,-348.34 919.28,-350.36 914.45,-352.33 909.07,-354.25 903.18,-356.11 896.81,-357.92 889.98,-359.66 882.73,-361.34 875.1,-362.96 867.12,-364.51 858.83,-365.98 850.26,-367.38 841.45,-368.71 832.43,-369.95 823.24,-371.12 813.91,-372.2 804.47,-373.2 794.97,-374.11 785.42,-374.94 775.85,-375.67 766.3,-376.31 756.79,-376.86 747.35,-377.31 737.99,-377.66 728.75,-377.91 719.63,-378.07 710.66,-378.12 701.84,-378.07 693.21,-377.91 684.76,-377.65 676.51,-377.29 668.47,-376.82 660.65,-376.24 653.06,-375.55 645.69,-374.76 638.56,-373.86 631.67,-372.85 625.03,-371.74 618.63,-370.52 612.49,-369.2 606.6,-367.78 600.97,-366.26 595.6,-364.65 590.49,-362.94 585.66,-361.15 581.1,-359.27 576.81,-357.3 572.81,-355.26 569.11,-353.15 565.7,-350.97 562.59,-348.73 559.8,-346.44 557.33,-344.1 555.2,-341.72 553.41,-339.3 551.97,-336.86 550.9,-334.4 550.21,-331.92 549.9,-329.45 550,-326.98 550.51,-324.52 551.45,-322.08 552.82,-319.68 554.64,-317.31 556.91,-314.99 559.65,-312.72 562.86,-310.52 566.55,-308.39 570.72,-306.34 575.38,-304.37 580.52,-302.5 586.15,-300.73 592.26,-299.06 598.85,-297.51 605.9,-296.07 613.41,-294.76 621.37,-293.57 629.75,-292.52 638.55,-291.6 647.73,-290.82 657.28,-290.18 667.17,-289.68 677.37,-289.32 687.85,-289.11 698.58,-289.05 709.51,-289.12 720.62,-289.34 731.87,-289.7 743.21,-290.19 754.6,-290.82 765.99,-291.59 777.35,-292.48 788.63,-293.5 799.79,-294.63 810.77,-295.88 821.54,-297.24 832.04,-298.71"/>
<text text-anchor="middle" x="729.14" y="-331.63" font-family="sans-serif" font-size="16.00">GestionFacturacionContext</text>
</g>
<!-- GestionAutorizacionAutenticacionContext&#45;&gt;GestionFacturacionContext -->
<g id="edge5" class="edge">
<title>GestionAutorizacionAutenticacionContext&#45;&gt;GestionFacturacionContext</title>
<path fill="none" stroke="black" stroke-width="2" d="M449.26,-441.71C505.95,-420.38 576.08,-394 631.96,-372.99"/>
<text text-anchor="middle" x="625.64" y="-405.59" font-family="sans-serif" font-size="12.00"> &#160;&#160;&#160;&#160;&#160;&#160;&#160;&#160;&#160;&#160;&#160;&#160;&#160;&#160;&#160;&#160;&#160;&#160;&#160;&#160;&#160;&#160;&#160;&#160;&#160;&#160;&#160;&#160;&#160;&#160;&#160;&#160;&#160;&#160;&#160;&#160;&#160;&#160;&#160;</text>
<polygon fill="white" stroke="transparent" points="612.96,-362.99 612.96,-381.99 628.96,-381.99 628.96,-362.99 612.96,-362.99"/>
<polyline fill="none" stroke="black" points="628.96,-362.99 628.96,-381.99 "/>
<text text-anchor="start" x="615.96" y="-369.39" font-family="sans-serif" font-size="12.00">D</text>
<polygon fill="white" stroke="transparent" points="628.96,-362.99 628.96,-381.99 650.96,-381.99 650.96,-362.99 628.96,-362.99"/>
<polygon fill="none" stroke="black" points="628.96,-362.99 628.96,-381.99 650.96,-381.99 650.96,-362.99 628.96,-362.99"/>
<text text-anchor="start" x="631.96" y="-369.39" font-family="sans-serif" font-size="12.00">CF</text>
<polygon fill="white" stroke="transparent" points="442.26,-432.71 442.26,-449.71 456.26,-449.71 456.26,-432.71 442.26,-432.71"/>
<text text-anchor="start" x="444.26" y="-438.11" font-family="sans-serif" font-size="12.00">U</text>
</g>
<!-- GestionFacturacionContext&#45;&gt;GestionReservasContext -->
<g id="edge6" class="edge">
<title>GestionFacturacionContext&#45;&gt;GestionReservasContext</title>
<path fill="none" stroke="black" stroke-width="2" d="M720.6,-289.1C717.41,-272.21 713.8,-253.06 710.63,-236.2"/>
<text text-anchor="middle" x="751.64" y="-259.08" font-family="sans-serif" font-size="12.00">Partnership</text>
</g>
<!-- GestionComprasContext -->
<g id="node7" class="node">
<title>GestionComprasContext</title>
<polygon fill="none" stroke="black" stroke-width="2" points="986.12,-153.45 995.36,-151.83 1004.8,-150.33 1014.41,-148.95 1024.15,-147.68 1033.97,-146.55 1043.85,-145.56 1053.75,-144.7 1063.62,-143.98 1073.45,-143.42 1083.19,-143 1092.82,-142.73 1102.3,-142.62 1111.6,-142.66 1120.71,-142.85 1129.58,-143.2 1138.21,-143.7 1146.57,-144.36 1154.63,-145.16 1162.39,-146.1 1169.83,-147.19 1176.93,-148.41 1183.68,-149.76 1190.08,-151.24 1196.11,-152.84 1201.77,-154.55 1207.06,-156.37 1211.97,-158.29 1216.5,-160.3 1220.65,-162.39 1224.42,-164.56 1227.82,-166.79 1230.83,-169.08 1233.48,-171.42 1235.76,-173.8 1237.68,-176.21 1239.23,-178.65 1240.44,-181.1 1241.29,-183.55 1241.8,-186.01 1241.97,-188.45 1241.8,-190.88 1241.3,-193.28 1240.47,-195.65 1239.32,-197.98 1237.85,-200.26 1236.06,-202.49 1233.96,-204.67 1231.54,-206.78 1228.81,-208.83 1225.77,-210.8 1222.42,-212.7 1218.76,-214.52 1214.79,-216.26 1210.52,-217.92 1205.95,-219.49 1201.07,-220.96 1195.88,-222.35 1190.4,-223.65 1184.63,-224.85 1178.56,-225.96 1172.2,-226.97 1165.56,-227.89 1158.64,-228.72 1151.46,-229.45 1144.02,-230.08 1136.33,-230.62 1128.41,-231.07 1120.26,-231.43 1111.9,-231.69 1103.36,-231.86 1094.64,-231.93 1085.78,-231.92 1076.78,-231.81 1067.68,-231.62 1058.49,-231.33 1049.25,-230.96 1039.99,-230.5 1030.72,-229.95 1021.49,-229.31 1012.32,-228.58 1003.25,-227.77 994.31,-226.87 985.53,-225.89 976.94,-224.82 968.59,-223.67 960.5,-222.44 952.71,-221.12 945.25,-219.72 938.15,-218.24 931.45,-216.68 925.18,-215.05 919.35,-213.34 914.02,-211.56 909.18,-209.71 904.89,-207.8 901.14,-205.82 897.96,-203.78 895.38,-201.68 893.4,-199.54 892.03,-197.34 891.29,-195.1 891.17,-192.83 891.69,-190.53 892.84,-188.2 894.62,-185.85 897.02,-183.49 900.04,-181.12 903.66,-178.76 907.86,-176.41 912.63,-174.07 917.95,-171.76 923.8,-169.49 930.15,-167.25 936.98,-165.07 944.24,-162.94 951.93,-160.88 959.99,-158.89 968.4,-156.98 977.12,-155.17 986.12,-153.45"/>
<text text-anchor="middle" x="1080.14" y="-186.36" font-family="sans-serif" font-size="16.00">GestionComprasContext</text>
</g>
<!-- GestionComprasContext&#45;&gt;GestionAdministracionFinanzasContext -->
<g id="edge7" class="edge">
<title>GestionComprasContext&#45;&gt;GestionAdministracionFinanzasContext</title>
<path fill="none" stroke="black" stroke-width="2" d="M1013.68,-148.85C982.48,-129.92 945.35,-107.4 914.09,-88.43"/>
<text text-anchor="middle" x="1013.14" y="-115.04" font-family="sans-serif" font-size="12.00">Shared Kernel</text>
</g>
<!-- GestionLimpiezaContext -->
<g id="node8" class="node">
<title>GestionLimpiezaContext</title>
<polygon fill="none" stroke="black" stroke-width="2" points="1277.85,-515.99 1269.07,-517.76 1260.06,-519.42 1250.86,-520.97 1241.49,-522.4 1232,-523.71 1222.42,-524.88 1212.79,-525.91 1203.13,-526.8 1193.49,-527.54 1183.88,-528.13 1174.36,-528.57 1164.94,-528.85 1155.65,-528.97 1146.52,-528.94 1137.57,-528.75 1128.83,-528.41 1120.32,-527.91 1112.06,-527.26 1104.07,-526.46 1096.36,-525.51 1088.95,-524.42 1081.85,-523.19 1075.07,-521.83 1068.62,-520.35 1062.51,-518.75 1056.74,-517.03 1051.33,-515.21 1046.26,-513.29 1041.56,-511.28 1037.21,-509.19 1033.22,-507.03 1029.59,-504.8 1026.31,-502.52 1023.39,-500.19 1020.83,-497.82 1018.61,-495.43 1016.75,-493.01 1015.23,-490.58 1014.06,-488.14 1013.23,-485.71 1012.74,-483.29 1012.59,-480.9 1012.77,-478.52 1013.28,-476.18 1014.13,-473.88 1015.31,-471.63 1016.82,-469.42 1018.66,-467.28 1020.82,-465.19 1023.32,-463.17 1026.15,-461.22 1029.3,-459.34 1032.78,-457.54 1036.59,-455.81 1040.73,-454.17 1045.2,-452.61 1049.99,-451.14 1055.1,-449.75 1060.54,-448.45 1066.29,-447.24 1072.35,-446.11 1078.72,-445.08 1085.4,-444.13 1092.36,-443.28 1099.61,-442.51 1107.13,-441.83 1114.91,-441.25 1122.94,-440.75 1131.2,-440.34 1139.67,-440.02 1148.34,-439.79 1157.19,-439.64 1166.19,-439.58 1175.32,-439.62 1184.55,-439.73 1193.87,-439.94 1203.23,-440.24 1212.62,-440.62 1222,-441.09 1231.34,-441.65 1240.6,-442.29 1249.77,-443.03 1258.79,-443.85 1267.64,-444.76 1276.28,-445.76 1284.68,-446.84 1292.81,-448.01 1300.63,-449.27 1308.11,-450.62 1315.21,-452.05 1321.91,-453.56 1328.18,-455.16 1333.99,-456.83 1339.3,-458.59 1344.11,-460.42 1348.38,-462.32 1352.1,-464.3 1355.25,-466.34 1357.81,-468.44 1359.77,-470.6 1361.11,-472.81 1361.84,-475.07 1361.95,-477.38 1361.44,-479.72 1360.3,-482.09 1358.54,-484.48 1356.18,-486.89 1353.21,-489.31 1349.66,-491.72 1345.53,-494.14 1340.85,-496.53 1335.64,-498.9 1329.91,-501.24 1323.7,-503.54 1317.03,-505.79 1309.93,-507.98 1302.43,-510.1 1294.56,-512.15 1286.35,-514.11 1277.85,-515.99"/>
<text text-anchor="middle" x="1174.14" y="-477.31" font-family="sans-serif" font-size="16.00">GestionLimpiezaContext</text>
</g>
<!-- GestionMantenimientoContext -->
<g id="node9" class="node">
<title>GestionMantenimientoContext</title>
<polygon fill="none" stroke="black" stroke-width="2" points="994.91,-356.86 988.15,-354.39 981.93,-351.88 976.27,-349.34 971.2,-346.77 966.74,-344.18 962.92,-341.59 959.74,-339.01 957.24,-336.44 955.41,-333.9 954.28,-331.38 953.84,-328.91 954.11,-326.48 955.08,-324.11 956.75,-321.81 959.13,-319.57 962.19,-317.4 965.93,-315.32 970.34,-313.32 975.4,-311.4 981.09,-309.58 987.39,-307.86 994.28,-306.23 1001.72,-304.7 1009.69,-303.27 1018.16,-301.95 1027.09,-300.72 1036.45,-299.6 1046.2,-298.59 1056.31,-297.68 1066.74,-296.86 1077.45,-296.15 1088.39,-295.54 1099.54,-295.03 1110.84,-294.61 1122.26,-294.29 1133.75,-294.06 1145.29,-293.93 1156.82,-293.88 1168.32,-293.92 1179.74,-294.05 1191.05,-294.26 1202.21,-294.55 1213.19,-294.93 1223.97,-295.38 1234.51,-295.92 1244.77,-296.53 1254.75,-297.21 1264.41,-297.98 1273.73,-298.82 1282.69,-299.73 1291.28,-300.71 1299.47,-301.77 1307.25,-302.91 1314.62,-304.11 1321.55,-305.39 1328.04,-306.73 1334.08,-308.15 1339.66,-309.64 1344.79,-311.19 1349.46,-312.82 1353.66,-314.51 1357.39,-316.27 1360.66,-318.09 1363.47,-319.97 1365.81,-321.91 1367.69,-323.91 1369.12,-325.96 1370.08,-328.07 1370.6,-330.21 1370.67,-332.4 1370.3,-334.63 1369.49,-336.89 1368.25,-339.18 1366.57,-341.49 1364.47,-343.81 1361.95,-346.14 1359.02,-348.47 1355.67,-350.8 1351.92,-353.11 1347.77,-355.39 1343.22,-357.65 1338.28,-359.87 1332.95,-362.04 1327.25,-364.15 1321.17,-366.21 1314.72,-368.18 1307.92,-370.08 1300.77,-371.88 1293.27,-373.59 1285.44,-375.19 1277.29,-376.68 1268.84,-378.04 1260.08,-379.28 1251.05,-380.39 1241.74,-381.35 1232.19,-382.17 1222.4,-382.84 1212.41,-383.35 1202.22,-383.71 1191.86,-383.9 1181.36,-383.94 1170.74,-383.81 1160.03,-383.52 1149.26,-383.06 1138.45,-382.44 1127.63,-381.67 1116.85,-380.74 1106.13,-379.65 1095.5,-378.41 1085,-377.03 1074.66,-375.52 1064.53,-373.87 1054.63,-372.09 1045,-370.2 1035.68,-368.2 1026.71,-366.1 1018.11,-363.9 1009.92,-361.63 1002.18,-359.28 994.91,-356.86"/>
<text text-anchor="middle" x="1174.14" y="-331.63" font-family="sans-serif" font-size="16.00">GestionMantenimientoContext</text>
</g>
<!-- GestionLimpiezaContext&#45;&gt;GestionMantenimientoContext -->
<g id="edge8" class="edge">
<title>GestionLimpiezaContext&#45;&gt;GestionMantenimientoContext</title>
<path fill="none" stroke="black" stroke-width="2" d="M1174.14,-439.33C1174.14,-422.07 1174.14,-401.85 1174.14,-383.93"/>
<text text-anchor="middle" x="1208.64" y="-405.59" font-family="sans-serif" font-size="12.00">Partnership</text>
</g>
<!-- GestionMantenimientoContext&#45;&gt;GestionReservasContext -->
<g id="edge9" class="edge">
<title>GestionMantenimientoContext&#45;&gt;GestionReservasContext</title>
<path fill="none" stroke="black" stroke-width="2" d="M1053.51,-297.82C982.49,-276.26 892.99,-249.09 822.09,-227.57"/>
<text text-anchor="middle" x="1028.64" y="-259.08" font-family="sans-serif" font-size="12.00"> &#160;&#160;&#160;&#160;&#160;&#160;&#160;&#160;&#160;&#160;&#160;&#160;&#160;&#160;&#160;&#160;&#160;&#160;&#160;&#160;&#160;&#160;&#160;&#160;&#160;&#160;&#160;&#160;&#160;&#160;&#160;&#160;&#160;&#160;&#160;&#160;&#160;&#160;&#160;</text>
<polygon fill="white" stroke="transparent" points="799.09,-217.57 799.09,-236.57 815.09,-236.57 815.09,-217.57 799.09,-217.57"/>
<polyline fill="none" stroke="black" points="815.09,-217.57 815.09,-236.57 "/>
<text text-anchor="start" x="802.09" y="-223.97" font-family="sans-serif" font-size="12.00">D</text>
<polygon fill="white" stroke="transparent" points="815.09,-217.57 815.09,-236.57 845.09,-236.57 845.09,-217.57 815.09,-217.57"/>
<polygon fill="none" stroke="black" points="815.09,-217.57 815.09,-236.57 845.09,-236.57 845.09,-217.57 815.09,-217.57"/>
<text text-anchor="start" x="818.09" y="-223.97" font-family="sans-serif" font-size="12.00">ACL</text>
<polygon fill="white" stroke="transparent" points="1046.51,-288.82 1046.51,-305.82 1060.51,-305.82 1060.51,-288.82 1046.51,-288.82"/>
<text text-anchor="start" x="1048.51" y="-294.22" font-family="sans-serif" font-size="12.00">U</text>
</g>
<!-- GestionMarketingContext -->
<g id="node10" class="node">
<title>GestionMarketingContext</title>
<polygon fill="none" stroke="black" stroke-width="2" points="409.64,-157.99 418.23,-159.89 426.44,-161.87 434.23,-163.92 441.57,-166.04 448.43,-168.2 454.78,-170.41 460.59,-172.66 465.84,-174.94 470.5,-177.25 474.56,-179.56 478,-181.89 480.81,-184.22 482.97,-186.54 484.49,-188.84 485.34,-191.13 485.54,-193.39 485.09,-195.62 483.99,-197.82 482.25,-199.97 479.88,-202.08 476.89,-204.14 473.3,-206.14 469.14,-208.08 464.42,-209.96 459.16,-211.78 453.4,-213.53 447.16,-215.21 440.46,-216.82 433.35,-218.36 425.86,-219.81 418.01,-221.19 409.84,-222.49 401.39,-223.71 392.69,-224.85 383.77,-225.91 374.68,-226.88 365.44,-227.77 356.09,-228.57 346.66,-229.29 337.18,-229.92 327.7,-230.46 318.22,-230.92 308.79,-231.28 299.43,-231.56 290.17,-231.74 281.03,-231.84 272.03,-231.84 263.2,-231.75 254.55,-231.56 246.1,-231.28 237.87,-230.91 229.86,-230.44 222.1,-229.87 214.59,-229.21 207.35,-228.45 200.37,-227.6 193.68,-226.64 187.26,-225.6 181.14,-224.45 175.31,-223.21 169.77,-221.88 164.53,-220.45 159.59,-218.93 154.96,-217.33 150.62,-215.63 146.6,-213.85 142.88,-211.99 139.46,-210.06 136.36,-208.05 133.57,-205.96 131.1,-203.82 128.94,-201.62 127.1,-199.36 125.59,-197.05 124.41,-194.7 123.56,-192.32 123.05,-189.91 122.88,-187.47 123.06,-185.03 123.59,-182.58 124.49,-180.13 125.75,-177.7 127.39,-175.28 129.41,-172.89 131.81,-170.54 134.6,-168.23 137.79,-165.98 141.37,-163.79 145.36,-161.68 149.75,-159.64 154.54,-157.69 159.74,-155.83 165.34,-154.08 171.33,-152.43 177.72,-150.9 184.5,-149.5 191.65,-148.22 199.16,-147.07 207.03,-146.06 215.23,-145.2 223.76,-144.47 232.58,-143.9 241.68,-143.47 251.04,-143.2 260.63,-143.07 270.42,-143.1 280.38,-143.28 290.49,-143.61 300.7,-144.09 310.98,-144.71 321.31,-145.47 331.63,-146.38 341.92,-147.41 352.13,-148.58 362.23,-149.87 372.18,-151.28 381.93,-152.81 391.45,-154.44 400.7,-156.16 409.64,-157.99"/>
<text text-anchor="middle" x="290.14" y="-186.36" font-family="sans-serif" font-size="16.00">GestionMarketingContext</text>
</g>
<!-- GestionMarketingContext&#45;&gt;GestionRecepcionContext -->
<g id="edge10" class="edge">
<title>GestionMarketingContext&#45;&gt;GestionRecepcionContext</title>
<path fill="none" stroke="black" stroke-width="2" d="M290.14,-143.27C290.14,-126.67 290.14,-107.97 290.14,-91.56"/>
<text text-anchor="middle" x="365.64" y="-115.04" font-family="sans-serif" font-size="12.00"> &#160;&#160;&#160;&#160;&#160;&#160;&#160;&#160;&#160;&#160;&#160;&#160;&#160;&#160;&#160;&#160;&#160;&#160;&#160;&#160;&#160;&#160;&#160;&#160;&#160;&#160;&#160;&#160;&#160;&#160;&#160;&#160;&#160;&#160;&#160;&#160;&#160;&#160;&#160;</text>
<polygon fill="white" stroke="transparent" points="283.14,-82.56 283.14,-99.56 297.14,-99.56 297.14,-82.56 283.14,-82.56"/>
<text text-anchor="start" x="285.14" y="-87.96" font-family="sans-serif" font-size="12.00">D</text>
<polygon fill="white" stroke="transparent" points="266.14,-133.27 266.14,-152.27 282.14,-152.27 282.14,-133.27 266.14,-133.27"/>
<polyline fill="none" stroke="black" points="282.14,-133.27 282.14,-152.27 "/>
<text text-anchor="start" x="269.14" y="-139.67" font-family="sans-serif" font-size="12.00">U</text>
<polygon fill="white" stroke="transparent" points="282.14,-133.27 282.14,-152.27 315.14,-152.27 315.14,-133.27 282.14,-133.27"/>
<polygon fill="none" stroke="black" points="282.14,-133.27 282.14,-152.27 315.14,-152.27 315.14,-133.27 282.14,-133.27"/>
<text text-anchor="start" x="285.14" y="-139.67" font-family="sans-serif" font-size="12.00">OHS</text>
</g>
</g>
</svg>
