<svg width="2000px" height="929px"
 viewBox="0.00 0.00 1133.31 526.16" xmlns="http://www.w3.org/2000/svg" xmlns:xlink="http://www.w3.org/1999/xlink">
<g id="graph0" class="graph" transform="scale(1.0 1.0) rotate(0) translate(4 522.16)">
<title>ContextMapGraph</title>
<polygon fill="white" stroke="transparent" points="-4,4 -4,-522.16 1129.31,-522.16 1129.31,4 -4,4"/>
<!-- GestionAdministracionFinanzasContext -->
<g id="node1" class="node">
<title>GestionAdministracionFinanzasContext</title>
<polygon fill="none" stroke="black" stroke-width="2" points="392.71,-1.05 409.22,-1.44 425.53,-1.94 441.56,-2.57 457.25,-3.3 472.54,-4.15 487.37,-5.1 501.67,-6.16 515.4,-7.33 528.5,-8.59 540.93,-9.95 552.64,-11.41 563.59,-12.95 573.75,-14.58 583.08,-16.28 591.57,-18.06 599.19,-19.91 605.92,-21.83 611.76,-23.8 616.69,-25.83 620.72,-27.91 623.85,-30.04 626.08,-32.2 627.43,-34.39 627.9,-36.61 627.53,-38.85 626.33,-41.1 624.33,-43.37 621.55,-45.63 618.03,-47.89 613.79,-50.15 608.88,-52.38 603.33,-54.6 597.18,-56.78 590.46,-58.94 583.22,-61.06 575.49,-63.13 567.31,-65.15 558.71,-67.11 549.75,-69.02 540.44,-70.86 530.83,-72.63 520.96,-74.32 510.84,-75.93 500.52,-77.46 490.02,-78.9 479.36,-80.25 468.58,-81.5 457.69,-82.65 446.72,-83.7 435.67,-84.64 424.58,-85.47 413.45,-86.2 402.3,-86.8 391.14,-87.3 379.98,-87.67 368.83,-87.93 357.69,-88.07 346.58,-88.09 335.51,-87.99 324.47,-87.77 313.48,-87.43 302.55,-86.98 291.68,-86.4 280.88,-85.71 270.16,-84.91 259.53,-83.99 249,-82.96 238.59,-81.83 228.32,-80.59 218.19,-79.25 208.22,-77.81 198.45,-76.28 188.88,-74.66 179.54,-72.95 170.47,-71.17 161.67,-69.3 153.19,-67.37 145.06,-65.38 137.3,-63.32 129.95,-61.21 123.05,-59.05 116.62,-56.85 110.7,-54.62 105.33,-52.36 100.54,-50.07 96.37,-47.77 92.85,-45.46 90.01,-43.14 87.88,-40.83 86.5,-38.53 85.88,-36.24 86.06,-33.98 87.05,-31.74 88.88,-29.54 91.55,-27.39 95.09,-25.28 99.49,-23.22 104.76,-21.23 110.9,-19.3 117.91,-17.43 125.77,-15.65 134.48,-13.95 144,-12.33 154.32,-10.8 165.42,-9.36 177.24,-8.03 189.77,-6.79 202.96,-5.66 216.76,-4.64 231.12,-3.73 245.99,-2.93 261.32,-2.25 277.04,-1.68 293.09,-1.23 309.42,-0.9 325.94,-0.69 342.6,-0.6 359.33,-0.63 376.05,-0.78 392.71,-1.05"/>
<text text-anchor="middle" x="354.37" y="-40.57" font-family="sans-serif" font-size="16.00">GestionAdministracionFinanzasContext</text>
</g>
<!-- GestionComprasContext -->
<g id="node2" class="node">
<title>GestionComprasContext</title>
<polygon fill="none" stroke="black" stroke-width="2" points="55.84,-157.14 63.13,-154.96 70.72,-152.87 78.59,-150.88 86.7,-149.01 95.04,-147.26 103.56,-145.63 112.24,-144.14 121.04,-142.78 129.95,-141.58 138.92,-140.52 147.93,-139.62 156.96,-138.88 165.97,-138.29 174.94,-137.87 183.85,-137.62 192.67,-137.53 201.38,-137.6 209.96,-137.84 218.39,-138.24 226.65,-138.79 234.72,-139.51 242.59,-140.37 250.24,-141.37 257.67,-142.52 264.85,-143.81 271.77,-145.22 278.43,-146.75 284.82,-148.39 290.92,-150.14 296.73,-151.99 302.25,-153.93 307.46,-155.95 312.37,-158.05 316.96,-160.2 321.23,-162.41 325.17,-164.67 328.8,-166.97 332.09,-169.29 335.04,-171.64 337.66,-174 339.94,-176.36 341.87,-178.72 343.45,-181.07 344.68,-183.41 345.56,-185.72 346.08,-188.01 346.24,-190.26 346.03,-192.47 345.45,-194.64 344.51,-196.75 343.18,-198.82 341.49,-200.83 339.41,-202.78 336.96,-204.67 334.12,-206.5 330.9,-208.26 327.3,-209.95 323.32,-211.57 318.95,-213.12 314.22,-214.6 309.11,-216.01 303.63,-217.35 297.79,-218.61 291.6,-219.8 285.07,-220.91 278.2,-221.95 271.01,-222.91 263.51,-223.8 255.72,-224.61 247.65,-225.35 239.33,-226 230.76,-226.58 221.99,-227.08 213.01,-227.5 203.87,-227.84 194.59,-228.09 185.19,-228.26 175.71,-228.35 166.17,-228.35 156.6,-228.25 147.04,-228.07 137.52,-227.8 128.06,-227.43 118.71,-226.97 109.5,-226.41 100.46,-225.75 91.63,-225 83.03,-224.14 74.7,-223.18 66.68,-222.12 58.99,-220.95 51.66,-219.68 44.72,-218.31 38.21,-216.84 32.14,-215.27 26.54,-213.6 21.43,-211.84 16.83,-209.98 12.76,-208.03 9.24,-205.99 6.27,-203.87 3.88,-201.67 2.06,-199.41 0.83,-197.07 0.19,-194.67 0.13,-192.22 0.66,-189.73 1.78,-187.2 3.46,-184.63 5.72,-182.05 8.53,-179.45 11.88,-176.86 15.75,-174.26 20.13,-171.69 25,-169.14 30.34,-166.63 36.11,-164.16 42.31,-161.75 48.89,-159.41 55.84,-157.14"/>
<text text-anchor="middle" x="183.37" y="-182.66" font-family="sans-serif" font-size="16.00">GestionComprasContext</text>
</g>
<!-- GestionComprasContext&#45;&gt;GestionAdministracionFinanzasContext -->
<g id="edge1" class="edge">
<title>GestionComprasContext&#45;&gt;GestionAdministracionFinanzasContext</title>
<path fill="none" stroke="black" stroke-width="2" d="M239.36,-139.59C260.01,-122.68 283.28,-103.61 303.45,-87.09"/>
<text text-anchor="middle" x="321.37" y="-110.15" font-family="sans-serif" font-size="12.00">Shared Kernel</text>
</g>
<!-- GestionLimpiezaContext -->
<g id="node3" class="node">
<title>GestionLimpiezaContext</title>
<polygon fill="none" stroke="black" stroke-width="2" points="688.44,-442.12 695.64,-444.31 702.44,-446.57 708.79,-448.89 714.68,-451.25 720.08,-453.65 724.97,-456.08 729.32,-458.52 733.11,-460.98 736.33,-463.43 738.96,-465.89 741,-468.32 742.43,-470.74 743.24,-473.13 743.44,-475.48 743.02,-477.79 741.98,-480.05 740.33,-482.26 738.08,-484.41 735.24,-486.5 731.82,-488.52 727.84,-490.46 723.32,-492.34 718.27,-494.13 712.71,-495.84 706.69,-497.47 700.21,-499.02 693.31,-500.48 686.02,-501.85 678.37,-503.13 670.39,-504.32 662.12,-505.42 653.58,-506.44 644.81,-507.36 635.85,-508.19 626.72,-508.94 617.48,-509.59 608.13,-510.16 598.73,-510.63 589.3,-511.02 579.87,-511.32 570.48,-511.53 561.15,-511.65 551.91,-511.69 542.78,-511.64 533.8,-511.5 524.99,-511.28 516.36,-510.97 507.94,-510.57 499.75,-510.08 491.8,-509.51 484.11,-508.85 476.69,-508.1 469.55,-507.27 462.71,-506.35 456.18,-505.34 449.95,-504.25 444.05,-503.06 438.47,-501.8 433.22,-500.44 428.3,-499 423.72,-497.48 419.47,-495.88 415.56,-494.19 411.99,-492.43 408.75,-490.59 405.86,-488.68 403.3,-486.69 401.08,-484.64 399.2,-482.53 397.66,-480.36 396.45,-478.13 395.58,-475.86 395.04,-473.55 394.85,-471.19 394.99,-468.81 395.47,-466.41 396.29,-463.98 397.45,-461.55 398.95,-459.12 400.79,-456.7 402.98,-454.29 405.52,-451.9 408.4,-449.55 411.64,-447.24 415.22,-444.98 419.15,-442.78 423.43,-440.64 428.05,-438.59 433.03,-436.61 438.34,-434.73 444,-432.96 449.99,-431.29 456.31,-429.73 462.95,-428.3 469.91,-427 477.17,-425.83 484.72,-424.8 492.55,-423.92 500.64,-423.19 508.98,-422.61 517.54,-422.19 526.32,-421.92 535.28,-421.81 544.4,-421.86 553.66,-422.07 563.04,-422.44 572.49,-422.96 582,-423.64 591.53,-424.47 601.06,-425.45 610.54,-426.57 619.95,-427.83 629.25,-429.22 638.41,-430.74 647.39,-432.38 656.16,-434.13 664.68,-435.99 672.93,-437.95 680.85,-439.99 688.44,-442.12"/>
<text text-anchor="middle" x="556.37" y="-466.24" font-family="sans-serif" font-size="16.00">GestionLimpiezaContext</text>
</g>
<!-- GestionMantenimientoContext -->
<g id="node4" class="node">
<title>GestionMantenimientoContext</title>
<polygon fill="none" stroke="black" stroke-width="2" points="618.68,-286.81 631.54,-287.63 644.15,-288.57 656.45,-289.61 668.4,-290.76 679.95,-292.01 691.05,-293.35 701.66,-294.78 711.73,-296.3 721.23,-297.9 730.12,-299.58 738.38,-301.33 745.96,-303.14 752.85,-305.02 759.03,-306.96 764.48,-308.94 769.19,-310.98 773.14,-313.05 776.33,-315.16 778.77,-317.29 780.45,-319.46 781.38,-321.64 781.57,-323.83 781.03,-326.03 779.79,-328.24 777.85,-330.44 775.24,-332.63 771.98,-334.81 768.11,-336.97 763.64,-339.11 758.62,-341.22 753.07,-343.3 747.03,-345.34 740.53,-347.33 733.6,-349.28 726.28,-351.17 718.6,-353.01 710.61,-354.79 702.33,-356.5 693.79,-358.14 685.03,-359.7 676.09,-361.19 666.98,-362.6 657.75,-363.92 648.41,-365.15 639,-366.29 629.53,-367.34 620.03,-368.28 610.51,-369.13 601.01,-369.87 591.53,-370.5 582.09,-371.02 572.7,-371.44 563.38,-371.74 554.13,-371.92 544.97,-372 535.91,-371.95 526.94,-371.79 518.09,-371.51 509.34,-371.12 500.72,-370.6 492.22,-369.97 483.85,-369.23 475.62,-368.37 467.53,-367.4 459.59,-366.31 451.81,-365.12 444.18,-363.82 436.73,-362.42 429.46,-360.92 422.38,-359.33 415.51,-357.64 408.85,-355.87 402.42,-354.01 396.24,-352.08 390.33,-350.07 384.7,-347.99 379.37,-345.86 374.36,-343.67 369.69,-341.43 365.39,-339.15 361.47,-336.83 357.97,-334.49 354.9,-332.13 352.29,-329.75 350.16,-327.36 348.53,-324.97 347.42,-322.6 346.86,-320.23 346.86,-317.89 347.45,-315.58 348.64,-313.31 350.44,-311.08 352.87,-308.9 355.94,-306.78 359.65,-304.72 364.01,-302.73 369.02,-300.82 374.68,-298.99 380.99,-297.25 387.93,-295.6 395.5,-294.05 403.68,-292.6 412.45,-291.26 421.78,-290.03 431.67,-288.91 442.06,-287.91 452.94,-287.02 464.27,-286.26 476,-285.62 488.1,-285.11 500.53,-284.72 513.23,-284.46 526.16,-284.32 539.26,-284.31 552.5,-284.42 565.8,-284.65 579.13,-285.01 592.42,-285.49 605.62,-286.09 618.68,-286.81"/>
<text text-anchor="middle" x="556.37" y="-324.75" font-family="sans-serif" font-size="16.00">GestionMantenimientoContext</text>
</g>
<!-- GestionLimpiezaContext&#45;&gt;GestionMantenimientoContext -->
<g id="edge2" class="edge">
<title>GestionLimpiezaContext&#45;&gt;GestionMantenimientoContext</title>
<path fill="none" stroke="black" stroke-width="2" d="M556.37,-421.82C556.37,-405.69 556.37,-387.77 556.37,-372.04"/>
<text text-anchor="middle" x="590.87" y="-394.33" font-family="sans-serif" font-size="12.00">Partnership</text>
</g>
<!-- GestionReservasContext -->
<g id="node5" class="node">
<title>GestionReservasContext</title>
<polygon fill="none" stroke="black" stroke-width="2" points="727.48,-190.01 726.74,-192.86 725.53,-195.69 723.85,-198.47 721.72,-201.21 719.13,-203.88 716.09,-206.49 712.61,-209.01 708.7,-211.44 704.38,-213.77 699.64,-215.99 694.51,-218.1 689,-220.08 683.12,-221.93 676.9,-223.65 670.34,-225.22 663.46,-226.66 656.29,-227.94 648.84,-229.08 641.14,-230.06 633.2,-230.9 625.05,-231.58 616.71,-232.11 608.2,-232.5 599.55,-232.73 590.78,-232.83 581.91,-232.78 572.97,-232.59 563.99,-232.27 554.99,-231.83 545.99,-231.26 537.02,-230.58 528.1,-229.78 519.26,-228.88 510.52,-227.88 501.92,-226.79 493.46,-225.61 485.17,-224.35 477.09,-223.02 469.22,-221.62 461.59,-220.15 454.23,-218.63 447.15,-217.06 440.37,-215.44 433.91,-213.78 427.79,-212.08 422.03,-210.35 416.63,-208.6 411.62,-206.81 407.01,-205.01 402.81,-203.18 399.04,-201.34 395.69,-199.49 392.79,-197.62 390.34,-195.75 388.35,-193.86 386.81,-191.97 385.75,-190.08 385.15,-188.18 385.02,-186.27 385.36,-184.37 386.16,-182.47 387.44,-180.56 389.17,-178.66 391.37,-176.77 394.01,-174.88 397.1,-172.99 400.62,-171.12 404.56,-169.26 408.92,-167.41 413.69,-165.59 418.84,-163.78 424.36,-162 430.25,-160.25 436.47,-158.54 443.03,-156.86 449.89,-155.22 457.04,-153.64 464.46,-152.11 472.13,-150.64 480.03,-149.23 488.14,-147.9 496.43,-146.65 504.88,-145.48 513.48,-144.4 522.19,-143.42 530.99,-142.55 539.86,-141.78 548.78,-141.14 557.71,-140.61 566.65,-140.21 575.55,-139.95 584.41,-139.82 593.19,-139.84 601.87,-140 610.42,-140.3 618.83,-140.76 627.07,-141.37 635.12,-142.13 642.95,-143.05 650.55,-144.12 657.89,-145.34 664.96,-146.71 671.73,-148.23 678.19,-149.89 684.32,-151.69 690.1,-153.62 695.51,-155.68 700.55,-157.86 705.19,-160.15 709.43,-162.54 713.25,-165.03 716.64,-167.6 719.6,-170.26 722.11,-172.97 724.16,-175.74 725.76,-178.56 726.89,-181.4 727.56,-184.26 727.75,-187.14 727.48,-190.01"/>
<text text-anchor="middle" x="556.37" y="-182.66" font-family="sans-serif" font-size="16.00">GestionReservasContext</text>
</g>
<!-- GestionMantenimientoContext&#45;&gt;GestionReservasContext -->
<g id="edge3" class="edge">
<title>GestionMantenimientoContext&#45;&gt;GestionReservasContext</title>
<path fill="none" stroke="black" stroke-width="2" d="M556.37,-284.38C556.37,-267.82 556.37,-248.89 556.37,-232.19"/>
<text text-anchor="middle" x="631.87" y="-256.58" font-family="sans-serif" font-size="12.00"> &#160;&#160;&#160;&#160;&#160;&#160;&#160;&#160;&#160;&#160;&#160;&#160;&#160;&#160;&#160;&#160;&#160;&#160;&#160;&#160;&#160;&#160;&#160;&#160;&#160;&#160;&#160;&#160;&#160;&#160;&#160;&#160;&#160;&#160;&#160;&#160;&#160;&#160;&#160;</text>
<polygon fill="white" stroke="transparent" points="533.37,-222.19 533.37,-241.19 549.37,-241.19 549.37,-222.19 533.37,-222.19"/>
<polyline fill="none" stroke="black" points="549.37,-222.19 549.37,-241.19 "/>
<text text-anchor="start" x="536.37" y="-228.59" font-family="sans-serif" font-size="12.00">D</text>
<polygon fill="white" stroke="transparent" points="549.37,-222.19 549.37,-241.19 579.37,-241.19 579.37,-222.19 549.37,-222.19"/>
<polygon fill="none" stroke="black" points="549.37,-222.19 549.37,-241.19 579.37,-241.19 579.37,-222.19 549.37,-222.19"/>
<text text-anchor="start" x="552.37" y="-228.59" font-family="sans-serif" font-size="12.00">ACL</text>
<polygon fill="white" stroke="transparent" points="549.37,-275.38 549.37,-292.38 563.37,-292.38 563.37,-275.38 549.37,-275.38"/>
<text text-anchor="start" x="551.37" y="-280.78" font-family="sans-serif" font-size="12.00">U</text>
</g>
<!-- GestionReservasContext&#45;&gt;GestionAdministracionFinanzasContext -->
<g id="edge5" class="edge">
<title>GestionReservasContext&#45;&gt;GestionAdministracionFinanzasContext</title>
<path fill="none" stroke="black" stroke-width="2" d="M499.56,-146.07C472.72,-127.45 440.7,-105.24 413.56,-86.42"/>
<text text-anchor="middle" x="537.87" y="-110.15" font-family="sans-serif" font-size="12.00"> &#160;&#160;&#160;&#160;&#160;&#160;&#160;&#160;&#160;&#160;&#160;&#160;&#160;&#160;&#160;&#160;&#160;&#160;&#160;&#160;&#160;&#160;&#160;&#160;&#160;&#160;&#160;&#160;&#160;&#160;&#160;&#160;&#160;&#160;&#160;&#160;&#160;&#160;&#160;</text>
<polygon fill="white" stroke="transparent" points="390.56,-76.42 390.56,-95.42 406.56,-95.42 406.56,-76.42 390.56,-76.42"/>
<polyline fill="none" stroke="black" points="406.56,-76.42 406.56,-95.42 "/>
<text text-anchor="start" x="393.56" y="-82.82" font-family="sans-serif" font-size="12.00">D</text>
<polygon fill="white" stroke="transparent" points="406.56,-76.42 406.56,-95.42 436.56,-95.42 436.56,-76.42 406.56,-76.42"/>
<polygon fill="none" stroke="black" points="406.56,-76.42 406.56,-95.42 436.56,-95.42 436.56,-76.42 406.56,-76.42"/>
<text text-anchor="start" x="409.56" y="-82.82" font-family="sans-serif" font-size="12.00">ACL</text>
<polygon fill="white" stroke="transparent" points="492.56,-137.07 492.56,-154.07 506.56,-154.07 506.56,-137.07 492.56,-137.07"/>
<text text-anchor="start" x="494.56" y="-142.47" font-family="sans-serif" font-size="12.00">U</text>
</g>
<!-- GestionRecepcionContext -->
<g id="node6" class="node">
<title>GestionRecepcionContext</title>
<polygon fill="none" stroke="black" stroke-width="2" points="834.22,-86.12 823.04,-85.29 812.08,-84.36 801.39,-83.31 791,-82.17 780.97,-80.92 771.32,-79.58 762.1,-78.15 753.35,-76.63 745.1,-75.03 737.37,-73.35 730.2,-71.6 723.6,-69.78 717.61,-67.9 712.24,-65.97 707.51,-63.98 703.42,-61.95 699.98,-59.88 697.21,-57.77 695.09,-55.63 693.63,-53.47 692.82,-51.29 692.66,-49.1 693.12,-46.9 694.21,-44.69 695.89,-42.49 698.16,-40.3 700.99,-38.12 704.36,-35.95 708.24,-33.82 712.6,-31.71 717.42,-29.63 722.68,-27.59 728.33,-25.6 734.35,-23.65 740.71,-21.75 747.38,-19.92 754.33,-18.14 761.52,-16.43 768.94,-14.79 776.55,-13.22 784.32,-11.73 792.24,-10.33 800.26,-9.01 808.38,-7.77 816.56,-6.63 824.79,-5.59 833.05,-4.65 841.31,-3.8 849.57,-3.06 857.81,-2.43 866.02,-1.9 874.17,-1.49 882.27,-1.19 890.31,-1 898.27,-0.93 906.15,-0.97 913.94,-1.14 921.64,-1.41 929.23,-1.81 936.73,-2.32 944.11,-2.95 951.39,-3.7 958.54,-4.56 965.57,-5.53 972.47,-6.61 979.24,-7.8 985.86,-9.1 992.34,-10.5 998.66,-12 1004.81,-13.6 1010.78,-15.28 1016.57,-17.06 1022.15,-18.92 1027.52,-20.85 1032.66,-22.86 1037.56,-24.93 1042.19,-27.07 1046.54,-29.26 1050.6,-31.5 1054.34,-33.78 1057.74,-36.09 1060.78,-38.44 1063.45,-40.8 1065.72,-43.18 1067.57,-45.57 1068.99,-47.95 1069.95,-50.33 1070.44,-52.69 1070.44,-55.03 1069.92,-57.34 1068.89,-59.62 1067.33,-61.85 1065.21,-64.03 1062.55,-66.15 1059.32,-68.21 1055.53,-70.2 1051.18,-72.11 1046.26,-73.94 1040.78,-75.68 1034.75,-77.33 1028.17,-78.88 1021.06,-80.32 1013.44,-81.67 1005.33,-82.9 996.74,-84.02 987.7,-85.02 978.25,-85.9 968.41,-86.66 958.21,-87.3 947.69,-87.82 936.9,-88.21 925.86,-88.47 914.62,-88.61 903.23,-88.62 891.73,-88.51 880.17,-88.27 868.59,-87.91 857.04,-87.43 845.56,-86.84 834.22,-86.12"/>
<text text-anchor="middle" x="888.37" y="-40.57" font-family="sans-serif" font-size="16.00">GestionRecepcionContext</text>
</g>
<!-- GestionReservasContext&#45;&gt;GestionRecepcionContext -->
<g id="edge4" class="edge">
<title>GestionReservasContext&#45;&gt;GestionRecepcionContext</title>
<path fill="none" stroke="black" stroke-width="2" d="M653.29,-144.57C699.32,-125.14 753.97,-102.08 799,-83.08"/>
<text text-anchor="middle" x="816.87" y="-110.15" font-family="sans-serif" font-size="12.00"> &#160;&#160;&#160;&#160;&#160;&#160;&#160;&#160;&#160;&#160;&#160;&#160;&#160;&#160;&#160;&#160;&#160;&#160;&#160;&#160;&#160;&#160;&#160;&#160;&#160;&#160;&#160;&#160;&#160;&#160;&#160;&#160;&#160;&#160;&#160;&#160;&#160;&#160;&#160;</text>
<polygon fill="white" stroke="transparent" points="792,-74.08 792,-91.08 806,-91.08 806,-74.08 792,-74.08"/>
<text text-anchor="start" x="794" y="-79.48" font-family="sans-serif" font-size="12.00">D</text>
<polygon fill="white" stroke="transparent" points="646.29,-135.57 646.29,-152.57 660.29,-152.57 660.29,-135.57 646.29,-135.57"/>
<text text-anchor="start" x="648.29" y="-140.97" font-family="sans-serif" font-size="12.00">U</text>
</g>
<!-- GestionMarketingContext -->
<g id="node7" class="node">
<title>GestionMarketingContext</title>
<polygon fill="none" stroke="black" stroke-width="2" points="1085.99,-163.52 1092.13,-165.96 1097.82,-168.45 1103.03,-170.97 1107.74,-173.52 1111.93,-176.09 1115.57,-178.67 1118.65,-181.25 1121.16,-183.82 1123.09,-186.38 1124.41,-188.9 1125.14,-191.39 1125.25,-193.84 1124.75,-196.23 1123.64,-198.57 1121.92,-200.85 1119.6,-203.05 1116.69,-205.18 1113.19,-207.23 1109.12,-209.2 1104.5,-211.08 1099.34,-212.86 1093.67,-214.56 1087.5,-216.15 1080.87,-217.65 1073.8,-219.05 1066.32,-220.35 1058.45,-221.55 1050.23,-222.65 1041.69,-223.64 1032.87,-224.54 1023.79,-225.33 1014.49,-226.03 1005.01,-226.63 995.38,-227.14 985.64,-227.55 975.81,-227.86 965.95,-228.09 956.06,-228.22 946.2,-228.26 936.4,-228.22 926.67,-228.09 917.06,-227.88 907.59,-227.59 898.29,-227.21 889.18,-226.75 880.29,-226.21 871.64,-225.59 863.26,-224.89 855.15,-224.12 847.34,-223.27 839.84,-222.34 832.67,-221.33 825.84,-220.25 819.36,-219.09 813.23,-217.85 807.48,-216.54 802.1,-215.16 797.1,-213.7 792.49,-212.17 788.26,-210.57 784.42,-208.9 780.97,-207.15 777.91,-205.34 775.24,-203.47 772.96,-201.53 771.07,-199.53 769.56,-197.47 768.43,-195.36 767.68,-193.2 767.31,-190.99 767.32,-188.74 767.7,-186.45 768.44,-184.14 769.55,-181.8 771.02,-179.44 772.86,-177.08 775.04,-174.71 777.58,-172.34 780.48,-169.98 783.71,-167.64 787.3,-165.34 791.22,-163.06 795.48,-160.83 800.07,-158.66 804.99,-156.55 810.24,-154.51 815.8,-152.54 821.68,-150.67 827.87,-148.89 834.35,-147.22 841.13,-145.66 848.19,-144.22 855.52,-142.91 863.11,-141.73 870.95,-140.69 879.02,-139.79 887.32,-139.05 895.81,-138.45 904.5,-138.02 913.35,-137.74 922.34,-137.63 931.46,-137.68 940.69,-137.89 949.99,-138.27 959.34,-138.81 968.72,-139.51 978.1,-140.37 987.44,-141.39 996.73,-142.55 1005.92,-143.86 1015,-145.32 1023.92,-146.9 1032.65,-148.62 1041.17,-150.45 1049.44,-152.4 1057.43,-154.45 1065.12,-156.6 1072.45,-158.83 1079.42,-161.14 1085.99,-163.52"/>
<text text-anchor="middle" x="935.37" y="-182.66" font-family="sans-serif" font-size="16.00">GestionMarketingContext</text>
</g>
<!-- GestionMarketingContext&#45;&gt;GestionRecepcionContext -->
<g id="edge6" class="edge">
<title>GestionMarketingContext&#45;&gt;GestionRecepcionContext</title>
<path fill="none" stroke="black" stroke-width="2" d="M919.32,-137.64C914.01,-121.79 908.12,-104.24 902.92,-88.75"/>
<text text-anchor="middle" x="987.87" y="-110.15" font-family="sans-serif" font-size="12.00"> &#160;&#160;&#160;&#160;&#160;&#160;&#160;&#160;&#160;&#160;&#160;&#160;&#160;&#160;&#160;&#160;&#160;&#160;&#160;&#160;&#160;&#160;&#160;&#160;&#160;&#160;&#160;&#160;&#160;&#160;&#160;&#160;&#160;&#160;&#160;&#160;&#160;&#160;&#160;</text>
<polygon fill="white" stroke="transparent" points="895.92,-79.75 895.92,-96.75 909.92,-96.75 909.92,-79.75 895.92,-79.75"/>
<text text-anchor="start" x="897.92" y="-85.15" font-family="sans-serif" font-size="12.00">D</text>
<polygon fill="white" stroke="transparent" points="895.32,-127.64 895.32,-146.64 911.32,-146.64 911.32,-127.64 895.32,-127.64"/>
<polyline fill="none" stroke="black" points="911.32,-127.64 911.32,-146.64 "/>
<text text-anchor="start" x="898.32" y="-134.04" font-family="sans-serif" font-size="12.00">U</text>
<polygon fill="white" stroke="transparent" points="911.32,-127.64 911.32,-146.64 944.32,-146.64 944.32,-127.64 911.32,-127.64"/>
<polygon fill="none" stroke="black" points="911.32,-127.64 911.32,-146.64 944.32,-146.64 944.32,-127.64 911.32,-127.64"/>
<text text-anchor="start" x="914.32" y="-134.04" font-family="sans-serif" font-size="12.00">OHS</text>
</g>
</g>
</svg>
