<svg width="2000px" height="1057px"
 viewBox="0.00 0.00 1005.15 530.95" xmlns="http://www.w3.org/2000/svg" xmlns:xlink="http://www.w3.org/1999/xlink">
<g id="graph0" class="graph" transform="scale(1.0 1.0) rotate(0) translate(4 526.95)">
<title>ContextMapGraph</title>
<polygon fill="white" stroke="transparent" points="-4,4 -4,-526.95 1001.15,-526.95 1001.15,4 -4,4"/>
<!-- CatalogoProductosContext -->
<g id="node1" class="node">
<title>CatalogoProductosContext</title>
<polygon fill="none" stroke="black" stroke-width="2" points="147.56,-520.55 136.07,-519.78 124.8,-518.89 113.79,-517.89 103.08,-516.79 92.73,-515.59 82.77,-514.29 73.24,-512.9 64.18,-511.42 55.62,-509.86 47.6,-508.22 40.13,-506.5 33.26,-504.72 27,-502.87 21.37,-500.96 16.38,-499 12.05,-496.98 8.39,-494.93 5.4,-492.84 3.08,-490.71 1.43,-488.56 0.44,-486.39 0.11,-484.2 0.43,-482 1.38,-479.79 2.94,-477.59 5.1,-475.39 7.84,-473.2 11.12,-471.03 14.93,-468.88 19.24,-466.75 24.02,-464.66 29.24,-462.6 34.88,-460.59 40.89,-458.62 47.26,-456.7 53.94,-454.84 60.92,-453.03 68.15,-451.29 75.62,-449.63 83.28,-448.03 91.13,-446.51 99.11,-445.07 107.22,-443.72 115.43,-442.45 123.72,-441.28 132.06,-440.2 140.43,-439.22 148.82,-438.35 157.21,-437.57 165.59,-436.91 173.94,-436.35 182.25,-435.9 190.51,-435.56 198.72,-435.34 206.85,-435.24 214.91,-435.25 222.89,-435.38 230.78,-435.62 238.58,-435.98 246.28,-436.46 253.88,-437.06 261.37,-437.77 268.74,-438.6 276,-439.54 283.14,-440.59 290.14,-441.75 297.01,-443.02 303.74,-444.39 310.31,-445.86 316.71,-447.43 322.94,-449.09 328.99,-450.83 334.83,-452.66 340.47,-454.57 345.87,-456.55 351.02,-458.6 355.92,-460.71 360.53,-462.88 364.84,-465.1 368.83,-467.36 372.47,-469.66 375.76,-471.98 378.66,-474.33 381.15,-476.7 383.22,-479.07 384.84,-481.45 386,-483.82 386.67,-486.17 386.83,-488.51 386.48,-490.82 385.59,-493.09 384.15,-495.33 382.15,-497.51 379.58,-499.64 376.43,-501.71 372.7,-503.71 368.39,-505.64 363.49,-507.48 358.01,-509.25 351.96,-510.92 345.35,-512.49 338.19,-513.97 330.5,-515.34 322.29,-516.61 313.59,-517.76 304.42,-518.8 294.82,-519.72 284.81,-520.52 274.43,-521.2 263.71,-521.76 252.7,-522.2 241.44,-522.51 229.96,-522.69 218.31,-522.75 206.54,-522.69 194.7,-522.5 182.83,-522.2 170.99,-521.77 159.21,-521.22 147.56,-520.55"/>
<text text-anchor="middle" x="199.89" y="-474.85" font-family="sans-serif" font-size="16.00">CatalogoProductosContext</text>
</g>
<!-- GestionOrdenesContext -->
<g id="node2" class="node">
<title>GestionOrdenesContext</title>
<polygon fill="none" stroke="black" stroke-width="2" points="219.31,-295.27 230.23,-295.56 241.02,-295.97 251.65,-296.49 262.07,-297.13 272.24,-297.89 282.12,-298.75 291.67,-299.73 300.86,-300.81 309.65,-301.99 318,-303.28 325.9,-304.66 333.31,-306.13 340.21,-307.69 346.58,-309.34 352.4,-311.07 357.66,-312.87 362.34,-314.75 366.45,-316.68 369.96,-318.68 372.89,-320.73 375.23,-322.84 376.99,-324.98 378.17,-327.16 378.78,-329.38 378.83,-331.62 378.35,-333.88 377.33,-336.15 375.81,-338.43 373.79,-340.71 371.31,-342.98 368.38,-345.24 365.02,-347.49 361.27,-349.71 357.14,-351.9 352.66,-354.06 347.85,-356.18 342.74,-358.24 337.35,-360.26 331.7,-362.21 325.83,-364.11 319.74,-365.93 313.47,-367.68 307.04,-369.35 300.45,-370.94 293.74,-372.44 286.91,-373.85 279.98,-375.17 272.97,-376.38 265.89,-377.49 258.76,-378.5 251.57,-379.4 244.35,-380.19 237.09,-380.86 229.82,-381.42 222.53,-381.86 215.22,-382.19 207.92,-382.39 200.61,-382.48 193.31,-382.45 186.03,-382.29 178.75,-382.02 171.5,-381.63 164.27,-381.12 157.07,-380.5 149.92,-379.76 142.8,-378.9 135.74,-377.94 128.74,-376.87 121.82,-375.69 114.97,-374.42 108.23,-373.04 101.59,-371.57 95.08,-370.01 88.71,-368.36 82.5,-366.63 76.47,-364.82 70.64,-362.95 65.02,-361 59.64,-358.99 54.52,-356.93 49.69,-354.82 45.17,-352.66 40.98,-350.46 37.14,-348.24 33.69,-345.98 30.64,-343.71 28.01,-341.42 25.83,-339.12 24.12,-336.83 22.91,-334.53 22.2,-332.25 22.01,-329.99 22.36,-327.76 23.27,-325.55 24.74,-323.38 26.78,-321.25 29.4,-319.17 32.61,-317.15 36.39,-315.18 40.75,-313.28 45.68,-311.45 51.18,-309.7 57.23,-308.02 63.81,-306.44 70.92,-304.94 78.52,-303.53 86.59,-302.22 95.12,-301.01 104.06,-299.91 113.38,-298.91 123.06,-298.03 133.05,-297.25 143.31,-296.59 153.81,-296.05 164.51,-295.62 175.35,-295.31 186.3,-295.12 197.3,-295.05 208.32,-295.1 219.31,-295.27"/>
<text text-anchor="middle" x="199.89" y="-334.97" font-family="sans-serif" font-size="16.00">GestionOrdenesContext</text>
</g>
<!-- CatalogoProductosContext&#45;&gt;GestionOrdenesContext -->
<g id="edge1" class="edge">
<title>CatalogoProductosContext&#45;&gt;GestionOrdenesContext</title>
<path fill="none" stroke="black" stroke-width="2" d="M199.89,-435.15C199.89,-418.54 199.89,-399.51 199.89,-382.84"/>
<text text-anchor="middle" x="275.39" y="-406.74" font-family="sans-serif" font-size="12.00"> &#160;&#160;&#160;&#160;&#160;&#160;&#160;&#160;&#160;&#160;&#160;&#160;&#160;&#160;&#160;&#160;&#160;&#160;&#160;&#160;&#160;&#160;&#160;&#160;&#160;&#160;&#160;&#160;&#160;&#160;&#160;&#160;&#160;&#160;&#160;&#160;&#160;&#160;&#160;</text>
<polygon fill="white" stroke="transparent" points="192.89,-373.84 192.89,-390.84 206.89,-390.84 206.89,-373.84 192.89,-373.84"/>
<text text-anchor="start" x="194.89" y="-379.24" font-family="sans-serif" font-size="12.00">D</text>
<polygon fill="white" stroke="transparent" points="175.89,-425.15 175.89,-444.15 191.89,-444.15 191.89,-425.15 175.89,-425.15"/>
<polyline fill="none" stroke="black" points="191.89,-425.15 191.89,-444.15 "/>
<text text-anchor="start" x="178.89" y="-431.55" font-family="sans-serif" font-size="12.00">U</text>
<polygon fill="white" stroke="transparent" points="191.89,-425.15 191.89,-444.15 224.89,-444.15 224.89,-425.15 191.89,-425.15"/>
<polygon fill="none" stroke="black" points="191.89,-425.15 191.89,-444.15 224.89,-444.15 224.89,-425.15 191.89,-425.15"/>
<text text-anchor="start" x="194.89" y="-431.55" font-family="sans-serif" font-size="12.00">OHS</text>
</g>
<!-- GestionPagosContext -->
<g id="node3" class="node">
<title>GestionPagosContext</title>
<polygon fill="none" stroke="black" stroke-width="2" points="351.41,-200.6 350.22,-203.45 348.63,-206.27 346.63,-209.04 344.23,-211.75 341.44,-214.39 338.26,-216.96 334.71,-219.44 330.79,-221.82 326.52,-224.1 321.9,-226.26 316.95,-228.3 311.69,-230.21 306.13,-231.99 300.27,-233.62 294.15,-235.12 287.78,-236.46 281.16,-237.65 274.33,-238.69 267.3,-239.57 260.09,-240.3 252.72,-240.88 245.2,-241.3 237.57,-241.57 229.83,-241.69 222.01,-241.67 214.14,-241.5 206.22,-241.19 198.29,-240.76 190.37,-240.19 182.47,-239.5 174.62,-238.69 166.83,-237.78 159.14,-236.76 151.55,-235.64 144.09,-234.43 136.79,-233.14 129.65,-231.76 122.7,-230.32 115.96,-228.81 109.45,-227.24 103.18,-225.62 97.17,-223.95 91.44,-222.24 86,-220.49 80.86,-218.71 76.05,-216.9 71.58,-215.06 67.45,-213.21 63.68,-211.34 60.28,-209.46 57.26,-207.56 54.62,-205.66 52.39,-203.75 50.55,-201.84 49.12,-199.93 48.1,-198.01 47.5,-196.1 47.31,-194.19 47.54,-192.28 48.19,-190.38 49.26,-188.48 50.74,-186.59 52.63,-184.71 54.93,-182.84 57.62,-180.98 60.71,-179.14 64.19,-177.31 68.04,-175.5 72.25,-173.71 76.82,-171.94 81.73,-170.21 86.97,-168.5 92.52,-166.82 98.38,-165.19 104.51,-163.59 110.91,-162.05 117.56,-160.56 124.44,-159.12 131.53,-157.75 138.81,-156.45 146.26,-155.22 153.86,-154.08 161.6,-153.02 169.44,-152.06 177.36,-151.19 185.35,-150.44 193.38,-149.79 201.43,-149.26 209.47,-148.85 217.49,-148.58 225.45,-148.43 233.35,-148.42 241.16,-148.55 248.84,-148.83 256.4,-149.25 263.79,-149.82 271,-150.54 278.02,-151.42 284.82,-152.44 291.38,-153.61 297.69,-154.93 303.72,-156.4 309.47,-158.01 314.91,-159.76 320.03,-161.64 324.82,-163.66 329.25,-165.79 333.34,-168.04 337.05,-170.39 340.38,-172.85 343.32,-175.39 345.86,-178.02 348.01,-180.71 349.74,-183.47 351.06,-186.27 351.97,-189.11 352.46,-191.98 352.52,-194.85 352.17,-197.73 351.41,-200.6"/>
<text text-anchor="middle" x="199.89" y="-190.96" font-family="sans-serif" font-size="16.00">GestionPagosContext</text>
</g>
<!-- GestionOrdenesContext&#45;&gt;GestionPagosContext -->
<g id="edge2" class="edge">
<title>GestionOrdenesContext&#45;&gt;GestionPagosContext</title>
<path fill="none" stroke="black" stroke-width="2" d="M199.89,-294.78C199.89,-277.8 199.89,-258.27 199.89,-241.07"/>
<text text-anchor="middle" x="234.39" y="-264.6" font-family="sans-serif" font-size="12.00">Partnership</text>
</g>
<!-- GestionClientesContext -->
<g id="node4" class="node">
<title>GestionClientesContext</title>
<polygon fill="none" stroke="black" stroke-width="2" points="488.54,-220.15 482.13,-217.84 476.14,-215.47 470.59,-213.05 465.5,-210.6 460.9,-208.12 456.8,-205.62 453.23,-203.12 450.19,-200.61 447.72,-198.11 445.81,-195.62 444.48,-193.17 443.73,-190.74 443.57,-188.35 444,-186.01 445.01,-183.72 446.61,-181.49 448.79,-179.33 451.53,-177.23 454.84,-175.21 458.68,-173.26 463.05,-171.4 467.93,-169.62 473.3,-167.93 479.13,-166.33 485.4,-164.82 492.08,-163.4 499.15,-162.07 506.58,-160.84 514.33,-159.7 522.38,-158.66 530.69,-157.71 539.23,-156.86 547.97,-156.1 556.88,-155.43 565.92,-154.85 575.06,-154.37 584.26,-153.98 593.5,-153.67 602.74,-153.46 611.96,-153.33 621.12,-153.29 630.19,-153.33 639.16,-153.46 647.99,-153.67 656.66,-153.97 665.14,-154.35 673.42,-154.82 681.48,-155.36 689.29,-155.99 696.85,-156.7 704.13,-157.5 711.13,-158.37 717.82,-159.33 724.21,-160.36 730.28,-161.48 736.02,-162.68 741.43,-163.96 746.51,-165.32 751.24,-166.76 755.63,-168.28 759.68,-169.88 763.37,-171.55 766.72,-173.29 769.72,-175.11 772.37,-176.99 774.67,-178.95 776.63,-180.96 778.24,-183.04 779.51,-185.17 780.43,-187.36 781.02,-189.59 781.27,-191.86 781.18,-194.17 780.75,-196.52 779.98,-198.88 778.89,-201.26 777.46,-203.66 775.69,-206.05 773.6,-208.44 771.17,-210.82 768.42,-213.17 765.33,-215.49 761.92,-217.78 758.18,-220.02 754.11,-222.2 749.73,-224.32 745.02,-226.36 739.99,-228.32 734.65,-230.19 729.01,-231.97 723.06,-233.63 716.81,-235.19 710.27,-236.62 703.46,-237.92 696.37,-239.09 689.03,-240.12 681.44,-241 673.62,-241.74 665.59,-242.32 657.35,-242.75 648.94,-243.02 640.36,-243.13 631.65,-243.07 622.82,-242.86 613.9,-242.49 604.91,-241.95 595.89,-241.26 586.85,-240.42 577.83,-239.42 568.85,-238.28 559.95,-236.99 551.17,-235.57 542.52,-234.02 534.04,-232.35 525.76,-230.56 517.72,-228.66 509.95,-226.66 502.48,-224.57 495.33,-222.4 488.54,-220.15"/>
<text text-anchor="middle" x="623.89" y="-190.96" font-family="sans-serif" font-size="16.00">GestionClientesContext</text>
</g>
<!-- GestionOrdenesContext&#45;&gt;GestionClientesContext -->
<g id="edge3" class="edge">
<title>GestionOrdenesContext&#45;&gt;GestionClientesContext</title>
<path fill="none" stroke="black" stroke-width="2" d="M307.7,-301.66C373.58,-279.6 457.32,-251.55 522.07,-229.87"/>
<text text-anchor="middle" x="459.39" y="-264.6" font-family="sans-serif" font-size="12.00">Partnership</text>
</g>
<!-- GestionEnviosContext -->
<g id="node5" class="node">
<title>GestionEnviosContext</title>
<polygon fill="none" stroke="black" stroke-width="2" points="739.5,-78.53 732.65,-80.68 725.53,-82.73 718.16,-84.68 710.57,-86.51 702.79,-88.23 694.84,-89.81 686.76,-91.27 678.56,-92.58 670.29,-93.74 661.96,-94.76 653.61,-95.62 645.25,-96.32 636.92,-96.86 628.63,-97.24 620.41,-97.45 612.28,-97.5 604.27,-97.39 596.38,-97.11 588.64,-96.68 581.07,-96.08 573.68,-95.34 566.49,-94.44 559.5,-93.4 552.74,-92.22 546.21,-90.91 539.92,-89.47 533.88,-87.91 528.1,-86.24 522.59,-84.46 517.35,-82.59 512.4,-80.62 507.72,-78.58 503.34,-76.47 499.24,-74.3 495.45,-72.07 491.95,-69.79 488.76,-67.49 485.88,-65.15 483.3,-62.79 481.03,-60.42 479.09,-58.05 477.45,-55.69 476.14,-53.33 475.15,-50.99 474.49,-48.68 474.15,-46.39 474.15,-44.14 474.48,-41.94 475.14,-39.77 476.15,-37.66 477.49,-35.6 479.18,-33.6 481.21,-31.66 483.59,-29.79 486.32,-27.98 489.39,-26.23 492.81,-24.56 496.58,-22.96 500.69,-21.43 505.15,-19.97 509.94,-18.59 515.06,-17.28 520.52,-16.04 526.29,-14.88 532.38,-13.8 538.77,-12.79 545.45,-11.86 552.41,-11.01 559.64,-10.24 567.11,-9.54 574.82,-8.92 582.74,-8.38 590.85,-7.92 599.14,-7.54 607.58,-7.25 616.14,-7.04 624.81,-6.91 633.54,-6.87 642.33,-6.91 651.13,-7.05 659.93,-7.27 668.68,-7.59 677.36,-7.99 685.94,-8.5 694.39,-9.1 702.67,-9.8 710.76,-10.59 718.63,-11.49 726.23,-12.48 733.56,-13.58 740.57,-14.78 747.24,-16.08 753.54,-17.48 759.45,-18.98 764.94,-20.57 769.99,-22.27 774.59,-24.05 778.71,-25.93 782.33,-27.9 785.45,-29.95 788.05,-32.08 790.11,-34.28 791.64,-36.56 792.63,-38.9 793.08,-41.29 792.98,-43.74 792.33,-46.23 791.15,-48.75 789.44,-51.31 787.2,-53.88 784.45,-56.46 781.21,-59.04 777.48,-61.61 773.28,-64.16 768.64,-66.68 763.57,-69.17 758.1,-71.61 752.25,-73.99 746.04,-76.3 739.5,-78.53"/>
<text text-anchor="middle" x="623.89" y="-44.87" font-family="sans-serif" font-size="16.00">GestionEnviosContext</text>
</g>
<!-- GestionClientesContext&#45;&gt;GestionEnviosContext -->
<g id="edge4" class="edge">
<title>GestionClientesContext&#45;&gt;GestionEnviosContext</title>
<path fill="none" stroke="black" stroke-width="2" d="M623.89,-153.24C623.89,-135.93 623.89,-115.59 623.89,-97.54"/>
<text text-anchor="middle" x="658.39" y="-118.73" font-family="sans-serif" font-size="12.00">Partnership</text>
</g>
<!-- GestionAutorizacionAutenticacionContext -->
<g id="node6" class="node">
<title>GestionAutorizacionAutenticacionContext</title>
<polygon fill="none" stroke="black" stroke-width="2" points="581.36,-299.01 597.18,-297.74 613.21,-296.58 629.4,-295.55 645.69,-294.65 662.01,-293.88 678.29,-293.25 694.49,-292.75 710.53,-292.4 726.37,-292.19 741.95,-292.12 757.22,-292.2 772.12,-292.43 786.63,-292.8 800.68,-293.32 814.25,-293.99 827.3,-294.79 839.8,-295.74 851.72,-296.82 863.03,-298.03 873.72,-299.38 883.77,-300.84 893.17,-302.43 901.9,-304.12 909.96,-305.92 917.34,-307.82 924.05,-309.82 930.08,-311.89 935.44,-314.05 940.14,-316.27 944.18,-318.55 947.58,-320.89 950.34,-323.27 952.48,-325.68 954,-328.12 954.94,-330.58 955.29,-333.05 955.08,-335.53 954.31,-337.99 953.01,-340.44 951.18,-342.87 948.85,-345.27 946.02,-347.63 942.71,-349.95 938.92,-352.22 934.67,-354.43 929.97,-356.58 924.82,-358.66 919.24,-360.67 913.22,-362.6 906.79,-364.45 899.93,-366.21 892.66,-367.89 884.98,-369.47 876.89,-370.96 868.4,-372.35 859.51,-373.64 850.23,-374.83 840.56,-375.92 830.51,-376.9 820.08,-377.78 809.28,-378.56 798.12,-379.24 786.61,-379.81 774.76,-380.27 762.6,-380.64 750.12,-380.9 737.36,-381.06 724.33,-381.12 711.05,-381.08 697.56,-380.94 683.87,-380.7 670.03,-380.37 656.07,-379.94 642.01,-379.42 627.9,-378.81 613.79,-378.11 599.71,-377.32 585.7,-376.44 571.82,-375.48 558.12,-374.43 544.64,-373.3 531.43,-372.09 518.56,-370.8 506.06,-369.44 493.99,-368 482.4,-366.48 471.36,-364.9 460.9,-363.24 451.07,-361.52 441.93,-359.74 433.52,-357.89 425.89,-355.99 419.06,-354.04 413.1,-352.03 408.01,-349.98 403.85,-347.88 400.64,-345.74 398.39,-343.57 397.12,-341.37 396.86,-339.15 397.61,-336.91 399.38,-334.65 402.16,-332.38 405.94,-330.11 410.73,-327.85 416.5,-325.6 423.23,-323.36 430.9,-321.15 439.47,-318.96 448.93,-316.82 459.21,-314.72 470.3,-312.67 482.12,-310.68 494.65,-308.76 507.82,-306.91 521.59,-305.14 535.88,-303.46 550.65,-301.87 565.83,-300.39 581.36,-299.01"/>
<text text-anchor="middle" x="696.89" y="-334.97" font-family="sans-serif" font-size="16.00">GestionAutorizacionAutenticacionContext</text>
</g>
<!-- GestionAutorizacionAutenticacionContext&#45;&gt;GestionClientesContext -->
<g id="edge5" class="edge">
<title>GestionAutorizacionAutenticacionContext&#45;&gt;GestionClientesContext</title>
<path fill="none" stroke="black" stroke-width="2" d="M673.99,-293.23C665.8,-277.29 656.53,-259.27 648.22,-243.1"/>
<text text-anchor="middle" x="738.39" y="-264.6" font-family="sans-serif" font-size="12.00"> &#160;&#160;&#160;&#160;&#160;&#160;&#160;&#160;&#160;&#160;&#160;&#160;&#160;&#160;&#160;&#160;&#160;&#160;&#160;&#160;&#160;&#160;&#160;&#160;&#160;&#160;&#160;&#160;&#160;&#160;&#160;&#160;&#160;&#160;&#160;&#160;&#160;&#160;&#160;</text>
<polygon fill="white" stroke="transparent" points="629.22,-233.1 629.22,-252.1 645.22,-252.1 645.22,-233.1 629.22,-233.1"/>
<polyline fill="none" stroke="black" points="645.22,-233.1 645.22,-252.1 "/>
<text text-anchor="start" x="632.22" y="-239.5" font-family="sans-serif" font-size="12.00">D</text>
<polygon fill="white" stroke="transparent" points="645.22,-233.1 645.22,-252.1 667.22,-252.1 667.22,-233.1 645.22,-233.1"/>
<polygon fill="none" stroke="black" points="645.22,-233.1 645.22,-252.1 667.22,-252.1 667.22,-233.1 645.22,-233.1"/>
<text text-anchor="start" x="648.22" y="-239.5" font-family="sans-serif" font-size="12.00">CF</text>
<polygon fill="white" stroke="transparent" points="655.99,-283.23 655.99,-302.23 671.99,-302.23 671.99,-283.23 655.99,-283.23"/>
<polyline fill="none" stroke="black" points="671.99,-283.23 671.99,-302.23 "/>
<text text-anchor="start" x="658.99" y="-289.63" font-family="sans-serif" font-size="12.00">U</text>
<polygon fill="white" stroke="transparent" points="671.99,-283.23 671.99,-302.23 692.99,-302.23 692.99,-283.23 671.99,-283.23"/>
<polygon fill="none" stroke="black" points="671.99,-283.23 671.99,-302.23 692.99,-302.23 692.99,-283.23 671.99,-283.23"/>
<text text-anchor="start" x="674.99" y="-289.63" font-family="sans-serif" font-size="12.00">PL</text>
</g>
</g>
</svg>
