<svg width="2000px" height="933px"
 viewBox="0.00 0.00 1162.38 541.80" xmlns="http://www.w3.org/2000/svg" xmlns:xlink="http://www.w3.org/1999/xlink">
<g id="graph0" class="graph" transform="scale(1.0 1.0) rotate(0) translate(4 537.8)">
<title>ContextMapGraph</title>
<polygon fill="white" stroke="transparent" points="-4,4 -4,-537.8 1158.38,-537.8 1158.38,4 -4,4"/>
<!-- GestionAdministracionFinanzasContext -->
<g id="node1" class="node">
<title>GestionAdministracionFinanzasContext</title>
<polygon fill="none" stroke="black" stroke-width="2" points="599.13,-56.35 596.01,-59.17 592.21,-61.94 587.77,-64.67 582.67,-67.32 576.96,-69.91 570.63,-72.41 563.71,-74.81 556.22,-77.11 548.19,-79.3 539.63,-81.36 530.57,-83.3 521.03,-85.1 511.05,-86.76 500.65,-88.28 489.86,-89.64 478.7,-90.85 467.21,-91.91 455.42,-92.81 443.36,-93.55 431.07,-94.14 418.56,-94.56 405.89,-94.83 393.07,-94.95 380.14,-94.91 367.15,-94.73 354.11,-94.41 341.06,-93.95 328.04,-93.35 315.08,-92.62 302.21,-91.78 289.47,-90.82 276.89,-89.75 264.49,-88.57 252.32,-87.31 240.4,-85.95 228.77,-84.51 217.45,-83 206.47,-81.42 195.87,-79.78 185.66,-78.08 175.89,-76.34 166.56,-74.55 157.71,-72.73 149.37,-70.87 141.55,-68.99 134.28,-67.09 127.57,-65.17 121.45,-63.24 115.94,-61.3 111.04,-59.35 106.78,-57.4 103.17,-55.45 100.22,-53.5 97.93,-51.55 96.33,-49.61 95.41,-47.68 95.18,-45.76 95.65,-43.85 96.81,-41.95 98.66,-40.07 101.2,-38.2 104.43,-36.34 108.34,-34.5 112.92,-32.68 118.16,-30.88 124.05,-29.1 130.57,-27.35 137.71,-25.62 145.45,-23.91 153.77,-22.24 162.65,-20.61 172.06,-19 181.98,-17.45 192.38,-15.93 203.24,-14.46 214.52,-13.05 226.19,-11.69 238.22,-10.4 250.57,-9.17 263.22,-8.02 276.11,-6.95 289.23,-5.96 302.53,-5.06 315.96,-4.25 329.5,-3.55 343.1,-2.95 356.73,-2.47 370.33,-2.1 383.89,-1.86 397.34,-1.74 410.66,-1.75 423.81,-1.9 436.74,-2.19 449.42,-2.62 461.82,-3.19 473.89,-3.91 485.61,-4.78 496.93,-5.79 507.83,-6.94 518.28,-8.25 528.24,-9.69 537.69,-11.28 546.6,-13 554.94,-14.85 562.7,-16.84 569.85,-18.94 576.37,-21.16 582.25,-23.48 587.47,-25.91 592.02,-28.43 595.88,-31.03 599.06,-33.7 601.53,-36.43 603.3,-39.21 604.36,-42.04 604.72,-44.89 604.37,-47.76 603.32,-50.63 601.57,-53.5 599.13,-56.35"/>
<text text-anchor="middle" x="349.34" y="-43.68" font-family="sans-serif" font-size="16.00">GestionAdministracionFinanzasContext</text>
</g>
<!-- GestionComprasContext -->
<g id="node2" class="node">
<title>GestionComprasContext</title>
<polygon fill="none" stroke="black" stroke-width="2" points="125.4,-233.44 114.98,-232.43 104.8,-231.31 94.9,-230.09 85.31,-228.77 76.09,-227.36 67.27,-225.86 58.87,-224.28 50.95,-222.62 43.52,-220.88 36.61,-219.08 30.25,-217.22 24.47,-215.3 19.27,-213.33 14.68,-211.31 10.71,-209.25 7.37,-207.16 4.66,-205.04 2.58,-202.9 1.15,-200.73 0.34,-198.56 0.16,-196.37 0.6,-194.19 1.65,-192.01 3.28,-189.83 5.48,-187.67 8.24,-185.53 11.53,-183.4 15.32,-181.31 19.6,-179.25 24.33,-177.22 29.49,-175.24 35.05,-173.3 40.97,-171.41 47.24,-169.58 53.81,-167.8 60.66,-166.09 67.77,-164.44 75.09,-162.86 82.6,-161.35 90.27,-159.92 98.08,-158.58 106,-157.31 114.01,-156.13 122.07,-155.05 130.18,-154.05 138.3,-153.15 146.43,-152.35 154.53,-151.65 162.6,-151.06 170.62,-150.57 178.58,-150.19 186.46,-149.91 194.26,-149.75 201.97,-149.7 209.57,-149.77 217.07,-149.95 224.44,-150.24 231.7,-150.65 238.83,-151.17 245.83,-151.81 252.7,-152.56 259.42,-153.43 266,-154.41 272.44,-155.49 278.72,-156.69 284.84,-157.99 290.8,-159.39 296.59,-160.9 302.2,-162.5 307.63,-164.19 312.86,-165.97 317.89,-167.84 322.7,-169.78 327.29,-171.8 331.65,-173.88 335.75,-176.03 339.58,-178.23 343.13,-180.49 346.39,-182.78 349.33,-185.11 351.94,-187.48 354.2,-189.86 356.1,-192.26 357.62,-194.67 358.74,-197.07 359.44,-199.47 359.71,-201.85 359.53,-204.21 358.89,-206.54 357.78,-208.83 356.17,-211.08 354.08,-213.27 351.47,-215.4 348.36,-217.47 344.73,-219.46 340.57,-221.37 335.91,-223.2 330.72,-224.94 325.03,-226.58 318.83,-228.11 312.15,-229.54 304.98,-230.86 297.36,-232.07 289.29,-233.16 280.81,-234.12 271.93,-234.97 262.68,-235.68 253.1,-236.27 243.21,-236.74 233.05,-237.07 222.66,-237.27 212.07,-237.35 201.33,-237.29 190.48,-237.11 179.55,-236.8 168.6,-236.37 157.66,-235.81 146.79,-235.14 136.02,-234.35 125.4,-233.44"/>
<text text-anchor="middle" x="188.34" y="-189.03" font-family="sans-serif" font-size="16.00">GestionComprasContext</text>
</g>
<!-- GestionComprasContext&#45;&gt;GestionAdministracionFinanzasContext -->
<g id="edge1" class="edge">
<title>GestionComprasContext&#45;&gt;GestionAdministracionFinanzasContext</title>
<path fill="none" stroke="black" stroke-width="2" d="M234.47,-150.75C255.19,-132.3 279.65,-110.52 300.67,-91.82"/>
<text text-anchor="middle" x="315.34" y="-116.37" font-family="sans-serif" font-size="12.00">Shared Kernel</text>
</g>
<!-- GestionLimpiezaContext -->
<g id="node3" class="node">
<title>GestionLimpiezaContext</title>
<polygon fill="none" stroke="black" stroke-width="2" points="419.62,-469.16 423.58,-466.48 427.95,-463.86 432.73,-461.31 437.88,-458.85 443.39,-456.47 449.25,-454.2 455.44,-452.05 461.93,-450.01 468.7,-448.09 475.74,-446.32 483.02,-444.68 490.52,-443.19 498.23,-441.86 506.11,-440.68 514.15,-439.66 522.32,-438.8 530.61,-438.1 538.99,-437.57 547.44,-437.2 555.94,-436.99 564.48,-436.94 573.02,-437.06 581.55,-437.32 590.05,-437.74 598.49,-438.31 606.87,-439.02 615.16,-439.87 623.34,-440.84 631.4,-441.94 639.31,-443.16 647.06,-444.49 654.64,-445.92 662.02,-447.44 669.19,-449.05 676.13,-450.74 682.83,-452.51 689.27,-454.33 695.44,-456.22 701.33,-458.15 706.91,-460.12 712.18,-462.13 717.12,-464.17 721.73,-466.23 725.97,-468.3 729.86,-470.39 733.37,-472.48 736.5,-474.57 739.23,-476.65 741.55,-478.73 743.47,-480.79 744.96,-482.84 746.02,-484.87 746.65,-486.87 746.85,-488.85 746.59,-490.81 745.9,-492.74 744.75,-494.63 743.15,-496.5 741.11,-498.34 738.61,-500.14 735.67,-501.9 732.29,-503.63 728.47,-505.32 724.22,-506.98 719.55,-508.6 714.47,-510.17 708.98,-511.7 703.1,-513.19 696.85,-514.64 690.24,-516.03 683.28,-517.38 675.99,-518.67 668.4,-519.91 660.52,-521.09 652.37,-522.21 643.98,-523.26 635.37,-524.25 626.56,-525.16 617.59,-526 608.48,-526.76 599.25,-527.43 589.93,-528.01 580.55,-528.5 571.15,-528.89 561.75,-529.18 552.38,-529.36 543.07,-529.43 533.85,-529.38 524.75,-529.22 515.8,-528.93 507.03,-528.52 498.46,-527.98 490.13,-527.31 482.05,-526.51 474.27,-525.57 466.79,-524.51 459.65,-523.31 452.86,-521.97 446.46,-520.51 440.45,-518.91 434.86,-517.19 429.7,-515.35 424.99,-513.39 420.74,-511.32 416.96,-509.13 413.67,-506.85 410.87,-504.47 408.56,-502.01 406.76,-499.46 405.46,-496.85 404.66,-494.18 404.37,-491.45 404.59,-488.69 405.3,-485.9 406.5,-483.09 408.19,-480.27 410.36,-477.46 413,-474.66 416.09,-471.89 419.62,-469.16"/>
<text text-anchor="middle" x="578.34" y="-481.55" font-family="sans-serif" font-size="16.00">GestionLimpiezaContext</text>
</g>
<!-- GestionMantenimientoContext -->
<g id="node4" class="node">
<title>GestionMantenimientoContext</title>
<polygon fill="none" stroke="black" stroke-width="2" points="404.92,-362.85 397.57,-360.45 390.75,-357.99 384.48,-355.49 378.8,-352.97 373.72,-350.42 369.27,-347.86 365.47,-345.29 362.34,-342.74 359.89,-340.2 358.14,-337.68 357.1,-335.2 356.77,-332.76 357.16,-330.36 358.26,-328.02 360.07,-325.74 362.6,-323.53 365.81,-321.39 369.72,-319.33 374.29,-317.35 379.52,-315.45 385.38,-313.64 391.84,-311.93 398.88,-310.31 406.48,-308.78 414.59,-307.35 423.2,-306.03 432.25,-304.79 441.73,-303.66 451.59,-302.63 461.78,-301.7 472.28,-300.86 483.04,-300.13 494.03,-299.49 505.19,-298.94 516.5,-298.49 527.9,-298.13 539.37,-297.86 550.86,-297.69 562.33,-297.6 573.74,-297.6 585.07,-297.68 596.27,-297.86 607.32,-298.11 618.17,-298.45 628.81,-298.86 639.19,-299.36 649.31,-299.94 659.13,-300.6 668.63,-301.34 677.79,-302.16 686.59,-303.06 695.01,-304.03 703.05,-305.08 710.69,-306.21 717.91,-307.42 724.71,-308.7 731.08,-310.06 737.02,-311.49 742.51,-313 747.57,-314.58 752.17,-316.23 756.33,-317.96 760.03,-319.75 763.29,-321.62 766.11,-323.54 768.47,-325.53 770.4,-327.58 771.88,-329.68 772.92,-331.84 773.53,-334.04 773.71,-336.29 773.46,-338.57 772.78,-340.88 771.68,-343.22 770.15,-345.58 768.21,-347.96 765.86,-350.33 763.1,-352.71 759.92,-355.08 756.35,-357.42 752.36,-359.74 747.98,-362.03 743.21,-364.27 738.04,-366.47 732.48,-368.6 726.55,-370.66 720.23,-372.64 713.54,-374.54 706.49,-376.34 699.08,-378.04 691.32,-379.62 683.22,-381.09 674.8,-382.43 666.06,-383.65 657.02,-384.72 647.7,-385.65 638.11,-386.43 628.27,-387.06 618.2,-387.53 607.92,-387.85 597.46,-388 586.84,-387.99 576.09,-387.81 565.24,-387.48 554.31,-386.98 543.34,-386.32 532.36,-385.5 521.4,-384.53 510.5,-383.41 499.69,-382.14 489.01,-380.73 478.51,-379.18 468.2,-377.51 458.14,-375.71 448.35,-373.8 438.89,-371.79 429.78,-369.68 421.05,-367.48 412.76,-365.2 404.92,-362.85"/>
<text text-anchor="middle" x="578.34" y="-335.49" font-family="sans-serif" font-size="16.00">GestionMantenimientoContext</text>
</g>
<!-- GestionLimpiezaContext&#45;&gt;GestionMantenimientoContext -->
<g id="edge2" class="edge">
<title>GestionLimpiezaContext&#45;&gt;GestionMantenimientoContext</title>
<path fill="none" stroke="black" stroke-width="2" d="M578.34,-437.18C578.34,-421.42 578.34,-403.86 578.34,-388.06"/>
<text text-anchor="middle" x="612.84" y="-409.3" font-family="sans-serif" font-size="12.00">Partnership</text>
</g>
<!-- GestionReservasContext -->
<g id="node5" class="node">
<title>GestionReservasContext</title>
<polygon fill="none" stroke="black" stroke-width="2" points="726.41,-170.53 732.22,-172.99 737.58,-175.5 742.48,-178.05 746.89,-180.63 750.78,-183.22 754.15,-185.82 756.98,-188.41 759.24,-191 760.94,-193.56 762.06,-196.09 762.59,-198.59 762.54,-201.04 761.89,-203.43 760.65,-205.77 758.82,-208.04 756.42,-210.24 753.44,-212.36 749.89,-214.39 745.8,-216.34 741.18,-218.2 736.04,-219.97 730.41,-221.64 724.3,-223.21 717.75,-224.68 710.78,-226.05 703.41,-227.32 695.68,-228.48 687.61,-229.54 679.23,-230.5 670.59,-231.36 661.7,-232.12 652.61,-232.78 643.35,-233.33 633.95,-233.8 624.44,-234.16 614.87,-234.44 605.25,-234.62 595.63,-234.71 586.04,-234.71 576.5,-234.63 567.05,-234.46 557.72,-234.2 548.52,-233.86 539.5,-233.45 530.67,-232.95 522.06,-232.37 513.69,-231.71 505.58,-230.98 497.75,-230.17 490.21,-229.28 482.97,-228.31 476.07,-227.28 469.5,-226.16 463.27,-224.97 457.4,-223.71 451.89,-222.38 446.76,-220.97 441.99,-219.49 437.61,-217.94 433.6,-216.31 429.98,-214.62 426.74,-212.86 423.89,-211.04 421.42,-209.15 419.33,-207.19 417.63,-205.18 416.3,-203.12 415.35,-201 414.77,-198.83 414.56,-196.62 414.72,-194.37 415.24,-192.09 416.12,-189.77 417.36,-187.44 418.95,-185.09 420.89,-182.72 423.18,-180.36 425.82,-178 428.79,-175.66 432.1,-173.33 435.74,-171.04 439.71,-168.78 444,-166.57 448.62,-164.41 453.55,-162.32 458.79,-160.3 464.34,-158.36 470.18,-156.51 476.32,-154.76 482.74,-153.11 489.44,-151.58 496.4,-150.17 503.62,-148.89 511.09,-147.74 518.78,-146.73 526.7,-145.87 534.82,-145.16 543.12,-144.6 551.6,-144.21 560.22,-143.97 568.98,-143.89 577.85,-143.98 586.81,-144.24 595.83,-144.66 604.89,-145.24 613.97,-145.98 623.03,-146.88 632.05,-147.94 641.01,-149.15 649.86,-150.5 658.59,-151.99 667.16,-153.62 675.54,-155.37 683.7,-157.25 691.61,-159.23 699.25,-161.32 706.57,-163.5 713.56,-165.77 720.18,-168.12 726.41,-170.53"/>
<text text-anchor="middle" x="578.34" y="-189.03" font-family="sans-serif" font-size="16.00">GestionReservasContext</text>
</g>
<!-- GestionMantenimientoContext&#45;&gt;GestionReservasContext -->
<g id="edge3" class="edge">
<title>GestionMantenimientoContext&#45;&gt;GestionReservasContext</title>
<path fill="none" stroke="black" stroke-width="2" d="M578.34,-297.28C578.34,-277.68 578.34,-254.28 578.34,-234.69"/>
<text text-anchor="middle" x="653.84" y="-263.09" font-family="sans-serif" font-size="12.00"> &#160;&#160;&#160;&#160;&#160;&#160;&#160;&#160;&#160;&#160;&#160;&#160;&#160;&#160;&#160;&#160;&#160;&#160;&#160;&#160;&#160;&#160;&#160;&#160;&#160;&#160;&#160;&#160;&#160;&#160;&#160;&#160;&#160;&#160;&#160;&#160;&#160;&#160;&#160;</text>
<polygon fill="white" stroke="transparent" points="555.34,-224.69 555.34,-243.69 571.34,-243.69 571.34,-224.69 555.34,-224.69"/>
<polyline fill="none" stroke="black" points="571.34,-224.69 571.34,-243.69 "/>
<text text-anchor="start" x="558.34" y="-231.09" font-family="sans-serif" font-size="12.00">D</text>
<polygon fill="white" stroke="transparent" points="571.34,-224.69 571.34,-243.69 601.34,-243.69 601.34,-224.69 571.34,-224.69"/>
<polygon fill="none" stroke="black" points="571.34,-224.69 571.34,-243.69 601.34,-243.69 601.34,-224.69 571.34,-224.69"/>
<text text-anchor="start" x="574.34" y="-231.09" font-family="sans-serif" font-size="12.00">ACL</text>
<polygon fill="white" stroke="transparent" points="571.34,-288.28 571.34,-305.28 585.34,-305.28 585.34,-288.28 571.34,-288.28"/>
<text text-anchor="start" x="573.34" y="-293.68" font-family="sans-serif" font-size="12.00">U</text>
</g>
<!-- GestionReservasContext&#45;&gt;GestionAdministracionFinanzasContext -->
<g id="edge4" class="edge">
<title>GestionReservasContext&#45;&gt;GestionAdministracionFinanzasContext</title>
<path fill="none" stroke="black" stroke-width="2" d="M508.38,-148.04C481.29,-131.08 450.25,-111.65 422.83,-94.49"/>
<text text-anchor="middle" x="545.84" y="-116.37" font-family="sans-serif" font-size="12.00"> &#160;&#160;&#160;&#160;&#160;&#160;&#160;&#160;&#160;&#160;&#160;&#160;&#160;&#160;&#160;&#160;&#160;&#160;&#160;&#160;&#160;&#160;&#160;&#160;&#160;&#160;&#160;&#160;&#160;&#160;&#160;&#160;&#160;&#160;&#160;&#160;&#160;&#160;&#160;</text>
<polygon fill="white" stroke="transparent" points="399.83,-84.49 399.83,-103.49 415.83,-103.49 415.83,-84.49 399.83,-84.49"/>
<polyline fill="none" stroke="black" points="415.83,-84.49 415.83,-103.49 "/>
<text text-anchor="start" x="402.83" y="-90.89" font-family="sans-serif" font-size="12.00">D</text>
<polygon fill="white" stroke="transparent" points="415.83,-84.49 415.83,-103.49 445.83,-103.49 445.83,-84.49 415.83,-84.49"/>
<polygon fill="none" stroke="black" points="415.83,-84.49 415.83,-103.49 445.83,-103.49 445.83,-84.49 415.83,-84.49"/>
<text text-anchor="start" x="418.83" y="-90.89" font-family="sans-serif" font-size="12.00">ACL</text>
<polygon fill="white" stroke="transparent" points="501.38,-139.04 501.38,-156.04 515.38,-156.04 515.38,-139.04 501.38,-139.04"/>
<text text-anchor="start" x="503.38" y="-144.44" font-family="sans-serif" font-size="12.00">U</text>
</g>
<!-- GestionRecepcionContext -->
<g id="node6" class="node">
<title>GestionRecepcionContext</title>
<polygon fill="none" stroke="black" stroke-width="2" points="916.19,-91.02 904.65,-91.43 893.11,-91.72 881.63,-91.88 870.26,-91.92 859.02,-91.83 847.98,-91.61 837.17,-91.27 826.63,-90.8 816.39,-90.2 806.51,-89.48 797,-88.64 787.91,-87.67 779.25,-86.59 771.06,-85.39 763.35,-84.07 756.15,-82.65 749.47,-81.13 743.32,-79.5 737.73,-77.78 732.68,-75.97 728.2,-74.07 724.27,-72.1 720.9,-70.05 718.09,-67.93 715.82,-65.76 714.1,-63.53 712.91,-61.26 712.23,-58.94 712.06,-56.6 712.38,-54.23 713.17,-51.84 714.42,-49.45 716.1,-47.05 718.2,-44.65 720.7,-42.27 723.57,-39.91 726.8,-37.58 730.37,-35.28 734.27,-33.02 738.46,-30.8 742.93,-28.64 747.68,-26.54 752.67,-24.51 757.89,-22.55 763.34,-20.66 768.99,-18.86 774.84,-17.15 780.87,-15.52 787.08,-13.99 793.45,-12.56 799.97,-11.23 806.64,-10.01 813.46,-8.89 820.41,-7.89 827.5,-7 834.71,-6.22 842.04,-5.56 849.49,-5.01 857.05,-4.58 864.72,-4.27 872.49,-4.08 880.36,-4 888.31,-4.03 896.35,-4.19 904.46,-4.45 912.64,-4.83 920.87,-5.32 929.15,-5.92 937.45,-6.63 945.77,-7.44 954.08,-8.35 962.38,-9.36 970.63,-10.47 978.83,-11.67 986.94,-12.96 994.94,-14.33 1002.81,-15.79 1010.52,-17.33 1018.05,-18.94 1025.36,-20.62 1032.43,-22.37 1039.22,-24.19 1045.71,-26.06 1051.86,-27.98 1057.64,-29.96 1063.04,-31.98 1068,-34.04 1072.51,-36.13 1076.54,-38.26 1080.05,-40.41 1083.03,-42.58 1085.46,-44.77 1087.3,-46.97 1088.54,-49.17 1089.16,-51.38 1089.15,-53.58 1088.5,-55.76 1087.19,-57.94 1085.23,-60.09 1082.61,-62.21 1079.32,-64.3 1075.38,-66.36 1070.79,-68.37 1065.57,-70.33 1059.72,-72.24 1053.26,-74.08 1046.22,-75.87 1038.62,-77.58 1030.49,-79.22 1021.86,-80.78 1012.75,-82.25 1003.21,-83.64 993.27,-84.93 982.98,-86.13 972.38,-87.22 961.5,-88.2 950.39,-89.08 939.11,-89.84 927.69,-90.49 916.19,-91.02"/>
<text text-anchor="middle" x="893.34" y="-43.68" font-family="sans-serif" font-size="16.00">GestionRecepcionContext</text>
</g>
<!-- GestionReservasContext&#45;&gt;GestionRecepcionContext -->
<g id="edge5" class="edge">
<title>GestionReservasContext&#45;&gt;GestionRecepcionContext</title>
<path fill="none" stroke="black" stroke-width="2" d="M663.99,-152.85C707.26,-133.16 759.74,-109.28 803.57,-89.33"/>
<text text-anchor="middle" x="819.84" y="-116.37" font-family="sans-serif" font-size="12.00"> &#160;&#160;&#160;&#160;&#160;&#160;&#160;&#160;&#160;&#160;&#160;&#160;&#160;&#160;&#160;&#160;&#160;&#160;&#160;&#160;&#160;&#160;&#160;&#160;&#160;&#160;&#160;&#160;&#160;&#160;&#160;&#160;&#160;&#160;&#160;&#160;&#160;&#160;&#160;</text>
<polygon fill="white" stroke="transparent" points="784.57,-79.33 784.57,-98.33 800.57,-98.33 800.57,-79.33 784.57,-79.33"/>
<polyline fill="none" stroke="black" points="800.57,-79.33 800.57,-98.33 "/>
<text text-anchor="start" x="787.57" y="-85.73" font-family="sans-serif" font-size="12.00">D</text>
<polygon fill="white" stroke="transparent" points="800.57,-79.33 800.57,-98.33 822.57,-98.33 822.57,-79.33 800.57,-79.33"/>
<polygon fill="none" stroke="black" points="800.57,-79.33 800.57,-98.33 822.57,-98.33 822.57,-79.33 800.57,-79.33"/>
<text text-anchor="start" x="803.57" y="-85.73" font-family="sans-serif" font-size="12.00">CF</text>
<polygon fill="white" stroke="transparent" points="656.99,-143.85 656.99,-160.85 670.99,-160.85 670.99,-143.85 656.99,-143.85"/>
<text text-anchor="start" x="658.99" y="-149.25" font-family="sans-serif" font-size="12.00">U</text>
</g>
<!-- GestionMarketingContext -->
<g id="node7" class="node">
<title>GestionMarketingContext</title>
<polygon fill="none" stroke="black" stroke-width="2" points="1108.94,-218.97 1102.2,-221.3 1095.11,-223.53 1087.69,-225.67 1079.98,-227.71 1072.01,-229.63 1063.79,-231.43 1055.37,-233.1 1046.77,-234.63 1038.02,-236.02 1029.14,-237.27 1020.17,-238.36 1011.13,-239.3 1002.05,-240.08 992.95,-240.69 983.87,-241.14 974.81,-241.43 965.81,-241.55 956.89,-241.51 948.07,-241.3 939.36,-240.94 930.8,-240.42 922.39,-239.74 914.15,-238.92 906.1,-237.95 898.26,-236.84 890.63,-235.6 883.24,-234.23 876.08,-232.75 869.19,-231.15 862.55,-229.45 856.19,-227.66 850.12,-225.78 844.34,-223.82 838.86,-221.79 833.69,-219.7 828.83,-217.55 824.3,-215.36 820.1,-213.14 816.24,-210.88 812.72,-208.61 809.55,-206.32 806.73,-204.03 804.28,-201.74 802.2,-199.46 800.49,-197.19 799.16,-194.94 798.21,-192.72 797.66,-190.53 797.49,-188.37 797.73,-186.26 798.37,-184.18 799.42,-182.16 800.88,-180.18 802.75,-178.26 805.04,-176.39 807.74,-174.58 810.86,-172.82 814.4,-171.13 818.35,-169.5 822.71,-167.93 827.49,-166.42 832.67,-164.97 838.24,-163.6 844.2,-162.28 850.55,-161.04 857.26,-159.85 864.34,-158.74 871.75,-157.7 879.5,-156.72 887.55,-155.81 895.9,-154.98 904.52,-154.21 913.39,-153.52 922.49,-152.91 931.79,-152.37 941.26,-151.91 950.88,-151.53 960.63,-151.23 970.46,-151.02 980.35,-150.9 990.26,-150.86 1000.17,-150.92 1010.03,-151.07 1019.83,-151.32 1029.51,-151.67 1039.06,-152.12 1048.42,-152.67 1057.58,-153.32 1066.49,-154.09 1075.13,-154.96 1083.46,-155.94 1091.45,-157.03 1099.07,-158.23 1106.3,-159.53 1113.1,-160.95 1119.46,-162.48 1125.33,-164.11 1130.72,-165.85 1135.59,-167.68 1139.93,-169.62 1143.72,-171.65 1146.95,-173.77 1149.62,-175.97 1151.7,-178.25 1153.2,-180.61 1154.11,-183.03 1154.43,-185.51 1154.17,-188.04 1153.33,-190.61 1151.9,-193.22 1149.91,-195.85 1147.37,-198.49 1144.28,-201.14 1140.66,-203.79 1136.53,-206.42 1131.91,-209.02 1126.82,-211.59 1121.28,-214.11 1115.31,-216.58 1108.94,-218.97"/>
<text text-anchor="middle" x="967.34" y="-189.03" font-family="sans-serif" font-size="16.00">GestionMarketingContext</text>
</g>
<!-- GestionMarketingContext&#45;&gt;GestionRecepcionContext -->
<g id="edge6" class="edge">
<title>GestionMarketingContext&#45;&gt;GestionRecepcionContext</title>
<path fill="none" stroke="black" stroke-width="2" d="M946.53,-151.52C936.82,-132.72 925.27,-110.34 915.41,-91.24"/>
<text text-anchor="middle" x="1007.84" y="-116.37" font-family="sans-serif" font-size="12.00"> &#160;&#160;&#160;&#160;&#160;&#160;&#160;&#160;&#160;&#160;&#160;&#160;&#160;&#160;&#160;&#160;&#160;&#160;&#160;&#160;&#160;&#160;&#160;&#160;&#160;&#160;&#160;&#160;&#160;&#160;&#160;&#160;&#160;&#160;&#160;&#160;&#160;&#160;&#160;</text>
<polygon fill="white" stroke="transparent" points="908.41,-82.24 908.41,-99.24 922.41,-99.24 922.41,-82.24 908.41,-82.24"/>
<text text-anchor="start" x="910.41" y="-87.64" font-family="sans-serif" font-size="12.00">D</text>
<polygon fill="white" stroke="transparent" points="922.53,-141.52 922.53,-160.52 938.53,-160.52 938.53,-141.52 922.53,-141.52"/>
<polyline fill="none" stroke="black" points="938.53,-141.52 938.53,-160.52 "/>
<text text-anchor="start" x="925.53" y="-147.92" font-family="sans-serif" font-size="12.00">U</text>
<polygon fill="white" stroke="transparent" points="938.53,-141.52 938.53,-160.52 971.53,-160.52 971.53,-141.52 938.53,-141.52"/>
<polygon fill="none" stroke="black" points="938.53,-141.52 938.53,-160.52 971.53,-160.52 971.53,-141.52 938.53,-141.52"/>
<text text-anchor="start" x="941.53" y="-147.92" font-family="sans-serif" font-size="12.00">OHS</text>
</g>
</g>
</svg>
